<svg viewBox="0 0 9000 6300" xmlns="http://www.w3.org/2000/svg">
  <path
     d="M 0,0 H 9000 V 6300 H 0 Z"
     style="fill:#d50032;stroke-width:9" />
  <path
     d="M 0,0 H 6120 V 6300 H 0 Z"
     style="fill:#fedd00;stroke-width:9" />
  <path
     d="M 0,0 H 2880 V 6300 H 0 Z"
     style="fill:#10069f;stroke-width:9" />
  <path
     d="M 4224,1696 C 4332,1696 4377,1789 4485,1789 4552,1789 4591,1767 4649,1734 4690,1711 4716,1699 4763,1699 4811,1699 4840,1713 4865,1754 4878,1777 4890,1823 4884,1849 4875,1889 4862,1928 4845,1966 4836,1987 4827,2001 4827,2025 4827,2082 4906,2102 4959,2103 4970,2103 5068,2105 5128,2044 5096,2042 5059,2017 5059,1984 5059,1948 5085,1923 5120,1912 5127,1910 5138,1916 5144,1913 5153,1908 5149,1899 5156,1893 5174,1879 5185,1870 5208,1870 5220,1869 5233,1873 5243,1880 5249,1885 5251,1890 5259,1890 5275,1890 5283,1880 5299,1880 5310,1880 5321,1882 5331,1888 5341,1893 5341,1909 5351,1909 5357,1909 5385,1897 5400,1897 5431,1897 5448,1908 5468,1932 5473,1938 5477,1951 5482,1951 5502,1953 5520,1961 5535,1974 5541,1980 5546,1986 5550,1993 5554,1999 5559,2013 5566,2015 5574,2017 5582,2020 5590,2024 5613,2039 5628,2065 5629,2093 5628,2103 5626,2113 5622,2122 5596,2215 5533,2244 5469,2324 5442,2358 5421,2385 5421,2428 5421,2439 5434,2458 5439,2467 5436,2446 5445,2421 5467,2420 5496,2419 5521,2441 5523,2470 5523,2479 5522,2488 5519,2496 5535,2485 5555,2478 5574,2476 5583,2475 5592,2474 5601,2475 5649,2476 5701,2502 5732,2529 5829,2612 5841,2732 5835,2765 5824,2839 5831,2974 5641,3027 5676,3042 5700,3068 5700,3101 5701,3136 5673,3165 5638,3166 5620,3167 5602,3160 5590,3147 5550,3187 5543,3227 5543,3283 5542,3312 5549,3340 5563,3366 5578,3398 5588,3417 5615,3440 5629,3419 5644,3403 5670,3403 5695,3403 5716,3411 5726,3434 5729,3440 5726,3446 5730,3453 5734,3461 5741,3463 5746,3472 5753,3485 5746,3496 5752,3510 5756,3519 5765,3520 5769,3529 5775,3541 5777,3554 5777,3567 5777,3609 5738,3640 5696,3640 5683,3640 5676,3635 5663,3636 5688,3660 5706,3670 5724,3699 5751,3741 5758,3771 5764,3820 5765,3828 5765,3836 5765,3844 5765,3908 5755,3946 5727,4002 5700,4056 5677,4086 5628,4122 5551,4177 5495,4193 5403,4211 5352,4221 5300,4228 5249,4231 5171,4236 5127,4236 5050,4241 4949,4248 4879,4263 4807,4334 4841,4359 4864,4383 4864,4425 4864,4468 4838,4499 4797,4512 4787,4516 4780,4513 4772,4517 4761,4523 4761,4535 4751,4542 4735,4552 4717,4557 4698,4556 4660,4556 4634,4547 4607,4520 4576,4546 4566,4569 4531,4589 4520,4595 4514,4604 4501,4604 4480,4604 4470,4591 4453,4579 4430,4562 4409,4543 4391,4521 4360,4540 4340,4556 4303,4556 4284,4557 4264,4551 4247,4540 4237,4534 4236,4525 4226,4519 4215,4512 4207,4515 4195,4510 4153,4492 4125,4460 4125,4414 4125,4373 4151,4347 4188,4330 4117,4260 4048,4248 3948,4241 3872,4236 3828,4236 3751,4231 3699,4227 3647,4221 3596,4211 3550,4203 3523,4201 3482,4182 3338,4114 3246,4022 3227,3865 3226,3853 3225,3841 3226,3830 3226,3748 3258,3698 3316,3640 3301,3636 3291,3641 3277,3636 3240,3623 3214,3597 3214,3559 3213,3546 3216,3534 3222,3523 3227,3514 3236,3512 3238,3502 3241,3489 3238,3480 3244,3468 3248,3460 3255,3458 3259,3450 3271,3424 3287,3403 3316,3403 3341,3403 3357,3416 3370,3437 3394,3426 3400,3408 3414,3385 3437,3347 3447,3321 3447,3276 3448,3250 3443,3223 3434,3198 3427,3177 3425,3163 3409,3147 3396,3160 3379,3167 3361,3166 3320,3165 3288,3132 3289,3091 3288,3063 3305,3037 3331,3026 3310,3008 3291,3006 3266,2991 3230,2968 3217,2943 3193,2907 3177,2883 3173,2867 3165,2839 3155,2812 3150,2782 3149,2753 3149,2745 3150,2738 3151,2730 3160,2661 3172,2618 3216,2563 3241,2531 3259,2511 3297,2495 3329,2481 3349,2470 3384,2470 3393,2470 3402,2471 3412,2472 3426,2472 3440,2476 3452,2483 3458,2486 3468,2495 3468,2489 3468,2482 3464,2478 3464,2470 3464,2441 3485,2414 3514,2414 3535,2414 3544,2433 3554,2451 3561,2442 3564,2431 3564,2420 3564,2371 3538,2347 3508,2309 3443,2227 3361,2189 3361,2084 3361,2052 3376,2031 3403,2015 3410,2010 3421,2015 3429,2010 3435,2006 3434,1998 3438,1991 3444,1982 3451,1974 3460,1968 3475,1955 3488,1959 3504,1948 3513,1942 3515,1934 3521,1927 3539,1905 3556,1894 3585,1894 3597,1893 3610,1895 3621,1899 3626,1901 3635,1908 3636,1907 3641,1900 3648,1894 3656,1890 3665,1885 3676,1882 3687,1882 3702,1882 3713,1891 3728,1891 3734,1891 3735,1885 3740,1882 3754,1873 3762,1867 3779,1867 3793,1868 3806,1873 3817,1882 3830,1890 3832,1900 3845,1908 3853,1912 3859,1911 3867,1913 3903,1925 3931,1949 3931,1988 3932,2006 3924,2024 3910,2037 3898,2047 3886,2046 3871,2051 3921,2091 3965,2101 4030,2101 4089,2101 4161,2077 4161,2018 4161,1990 4146,1975 4135,1950 4116,1905 4105,1879 4105,1830 4105,1791 4110,1767 4132,1736 4156,1703 4184,1696 4224,1696 Z"
     style="fill:#c6aa76;stroke-width:9" />
  <path
     style="fill:none;stroke:#713f2a;stroke-width:9;stroke-linejoin:round"
     d="M 3830,2011 C 3835,2027 3848,2040 3864,2045 3884,2049 3905,2042 3918,2025 3930,2009 3932,1988 3926,1969 3921,1956 3912,1945 3901,1937 L 3830,2010 3830,2011 Z" />
  <path
     style="fill:none;stroke:#713f2a;stroke-width:9;stroke-linecap:round"
     d="M 5639,3095 C 5622,3054 5579,3073 5576,3095 5570,3147 5615,3162 5647,3154 5662,3150 5675,3140 5682,3126 5691,3110 5693,3092 5688,3074 5683,3058 5672,3043 5658,3034 5646,3026 5632,3025 5611,3025 5533,3025 5464,3118 5441,3214 5428,3270 5427,3327 5437,3383 5449,3443 5478,3498 5520,3542 5544,3565 5571,3584 5601,3599 5620,3609 5639,3617 5659,3624 5677,3629 5696,3629 5715,3625 5761,3615 5783,3572 5759,3527 5740,3491 5684,3471 5657,3518 5654,3524 5652,3532 5652,3539 5651,3552 5656,3564 5666,3572 5686,3585 5718,3581 5717,3546" />
  <path
     style="fill:none;stroke:#713f2a;stroke-width:11"
     d="M 5397,3627 C 5421,3600 5454,3582 5490,3576 5532,3571 5568,3583 5605,3603 5678,3642 5718,3684 5745,3762 5754,3788 5758,3815 5757,3843 5756,3893 5743,3948 5729,3975 5717,3998 5686,4101 5514,4172 5413,4213 5259,4223 5153,4227 5006,4233 4871,4238 4793,4335" />
  <path
     d="M 5433,3793 C 5429,3777 5433,3762 5445,3746 5461,3723 5496,3716 5528,3733 5542,3740 5554,3750 5563,3762 5568,3768 5576,3778 5579,3785 5586,3796 5591,3808 5595,3820 5629,3918 5574,4025 5503,4068 5447,4101 5380,4116 5300,4125 5264,4129 5244,4129 5208,4131 5179,4132 5154,4131 5130,4131 5111,4131 5092,4131 5074,4131 5040,4129 5006,4130 4972,4132 4931,4135 4900,4136 4866,4142 4843,4145 4817,4149 4789,4155 4781,4157 4772,4159 4764,4161 4758,4163 4752,4165 4747,4166 4698,4180 4652,4200 4609,4225 4597,4232 4585,4240 4574,4250 4568,4255 4561,4261 4555,4267 4528,4293 4501,4322 4494,4361 4493,4368 4493,4376 4493,4383 4493,4408 4514,4443 4569,4454 M 4647,2061 C 4658,2082 4665,2095 4658,2117 4650,2141 4633,2156 4608,2156 4552,2156 4519,2090 4545,2047 4589,1973 4676,2015 4755,2052 4751,2033 4745,2026 4745,2003 4747,1943 4791,1917 4808,1862 4819,1830 4823,1801 4799,1778 4778,1758 4754,1758 4727,1769 4673,1790 4608,1851 4494,1853 4379,1851 4313,1790 4259,1769 4232,1758 4208,1758 4187,1778 4164,1801 4168,1830 4178,1862 4196,1917 4239,1943 4241,2003 4242,2026 4235,2033 4231,2052 4311,2015 4400,1969 4442,2047 4465,2091 4434,2156 4378,2156 4354,2156 4336,2140 4329,2117 4323,2098 4327,2077 4340,2061"
     style="fill:none;stroke:#713f2a;stroke-width:10" />
  <path
     d="M 4423,2023 C 4445,2039 4460,2060 4457,2093 4455,2128 4446,2137 4418,2156 M 4452,2103 C 4452,2123 4439,2141 4420,2147"
     style="fill:none;stroke:#713f2a;stroke-width:10;stroke-linecap:round" />
  <path
     style="fill:#c6aa76;stroke-width:9"
     d="M 3891,1930 3901,1937 3911,1948 3918,1962 3922,1974 3923,1989 3922,2000 3918,2012 3911,2020 3903,2029 3891,2036 3876,2039 3862,2041 3848,2035 3836,2026 3828,2015 3823,2001 V 1995 L 3891,1930 Z" />
  <path
     style="fill:none;stroke:#713f2a;stroke-width:9;stroke-linecap:round"
     d="M 3870,1985 C 3865,1961 3838,1957 3828,1970 3811,1991 3823,2027 3856,2037 3876,2042 3897,2034 3910,2017 3930,1990 3923,1952 3896,1932 3895,1932 3894,1931 3893,1931 3855,1902 3793,1908 3773,1957 3747,2020 3804,2068 3856,2103 3922,2148 3998,2157 4054,2156 4183,2155 4281,2093 4345,2058 4359,2050 4375,2051 4382,2061 4392,2072 4390,2089 4379,2099" />
  <path
     style="fill:none;stroke:#713f2a;stroke-width:10"
     d="M 3488,3729 3459,3739 3430,3762 3417,3779 3401,3807 3394,3828 3389,3854 3386,3873 M 3653,3731 3651,3757 3647,3774 3634,3804 3615,3830 3594,3847 3578,3855 3556,3859" />
  <path
     style="fill:none;stroke:#713f2a;stroke-width:11"
     d="M 4496,4403 C 4491,4426 4469,4453 4421,4462 L 4412,4464" />
  <path
     style="fill:none;stroke:#713f2a;stroke-width:12"
     d="M 5684,3659 C 5715,3689 5738,3726 5751,3768 5760,3794 5764,3821 5763,3849 5762,3899 5749,3954 5735,3981 5723,4004 5692,4107 5520,4178 5419,4219 5265,4229 5159,4233 5014,4239 4881,4244 4802,4337" />
  <path
     style="fill:none;stroke:#713f2a;stroke-width:8"
     d="M 5449,3752 C 5459,3737 5498,3719 5530,3736 5543,3743 5555,3753 5563,3766" />
  <path
     style="fill:none;stroke:#713f2a;stroke-width:12"
     d="M 5647,3625 C 5654,3627 5661,3630 5667,3632 5685,3637 5704,3638 5723,3633 5763,3621 5788,3584 5767,3535 5762,3523 5753,3513 5743,3505" />
  <path
     style="fill:none;stroke:#713f2a;stroke-width:9;stroke-linecap:round"
     d="M 3378,2584 C 3352,2600 3332,2604 3311,2628 3295,2658 3282,2691 3274,2724 M 3922,1997 C 3922,2021 3905,2037 3880,2042" />
  <path
     style="fill:none;stroke:#713f2a;stroke-width:9"
     d="M 5584,2475 C 5650,2473 5844,2526 5845,2753 5846,2977 5707,3014 5651,3029" />
  <path
     style="fill:none;stroke:#713f2a;stroke-width:9"
     d="M 5601,2475 C 5716,2470 5834,2554 5840,2765 5844,2929 5727,3004 5671,3019" />
  <path
     style="fill:none;stroke:#713f2a;stroke-width:8"
     d="M 5537,3268 5539,3245 5547,3210 5557,3182 5569,3159 5585,3140 M 5694,3093 5692,3115 5686,3130 5676,3144 5665,3152 5648,3159 5633,3160 5622,3158 M 5420,2415 5425,2391 5436,2369 5450,2347 5473,2317 5491,2297 5522,2266 5547,2240 5564,2221 5586,2195 5605,2166 5616,2142 5623,2111 5625,2073 5621,2062 M 5448,3864 5471,3860 5488,3851 5498,3841 5504,3831 5509,3813 5509,3801 M 3284,3630 3301,3631 3322,3630 3344,3622 M 3414,3108 3412,3128 3407,3136 3400,3145 3391,3152 3381,3156 3368,3158 3359,3159 M 3498,2939 3493,2970 3487,2983 3475,3000 3459,3012 3442,3021 3409,3029 M 3624,2470 3618,2488 3610,2501 3600,2516 3585,2529 3568,2538 3553,2541 3544,2540 M 3549,2453 3550,2467" />
  <path
     d="M 3575,2925 C 3567,2933 3557,2939 3546,2944 M 5663,3574 C 5664,3575 5668,3576 5669,3577 5689,3589 5729,3574 5717,3543"
     style="fill:none;stroke:#713f2a;stroke-width:9;stroke-linecap:round" />
  <path
     d="M 5593,3144 C 5608,3162 5634,3167 5655,3162 5670,3158 5683,3148 5690,3134 5699,3118 5701,3100 5696,3082 5693,3074 5689,3066 5684,3059 5679,3051 5672,3044 5665,3039 5663,3038 5662,3036 5660,3035 M 5750,3514 C 5754,3495 5747,3475 5733,3462 5730,3458 5726,3454 5721,3451 M 5728,3458 C 5727,3432 5706,3413 5679,3408 M 5620,3448 C 5614,3443 5608,3438 5602,3433 5563,3392 5542,3339 5541,3283 5541,3224 5564,3165 5592,3142 M 4797,4332 4822,4309 4840,4296 4873,4276 4903,4261 4925,4255 4969,4246 5019,4238 M 4604,4510 C 4586,4538 4542,4580 4497,4597 4451,4580 4408,4538 4390,4510"
     style="fill:none;stroke:#713f2a;stroke-width:9" />
  <path
     d="M 4421,4452 C 4415,4474 4405,4494 4390,4510"
     style="fill:none;stroke:#713f2a;stroke-width:9;stroke-linecap:round" />
  <path
     d="M 4426,4423 4419,4454 M 4386,4512 4373,4526 4349,4539 4322,4547 M 4243,2047 C 4247,2035 4249,2023 4249,2010 4247,1951 4203,1925 4186,1870 4176,1837 4171,1809 4195,1786 4216,1766 4240,1766 4267,1777 4321,1798 4387,1859 4501,1861 4387,1859 4321,1798 4267,1777 4240,1766 4214,1763 4193,1783 4169,1806 4176,1837 4186,1870 4203,1925 4245,1951 4247,2010 4247,2023 4244,2035 4239,2047 M 4501,1857 C 4614,1851 4710,1775 4741,1769 4769,1764 4785,1766 4805,1785 4785,1766 4762,1767 4735,1777 4681,1798 4616,1859 4501,1861 M 5621,3448 C 5566,3407 5534,3343 5533,3275 5533,3217 5556,3157 5584,3134 M 4600,4506 C 4582,4534 4538,4576 4493,4593 4447,4576 4404,4534 4386,4506"
     style="fill:none;stroke:#713f2a;stroke-width:9" />
  <path
     d="M 4312,2076 C 4324,2070 4335,2064 4345,2058 4359,2050 4377,2052 4385,2061 4395,2073 4394,2090 4383,2101"
     style="fill:none;stroke:#713f2a;stroke-width:9;stroke-linecap:round" />
  <path
     d="M 4144,2155 C 4221,2139 4284,2104 4332,2078 M 4786,4386 C 4790,4390 4794,4395 4796,4400 4798,4404 4800,4408 4801,4412 4804,4428 4794,4444 4778,4448 4776,4448 4775,4448 4773,4449 4752,4451 4732,4439 4724,4420 M 4140,2151 C 4217,2135 4280,2100 4328,2074 M 5700,3577 C 5685,3583 5677,3582 5659,3574 5651,3570 5643,3565 5633,3559 5597,3539 5554,3507 5514,3432 5504,3412 5496,3391 5490,3369 5487,3354 5484,3338 5483,3322 5483,3293 5486,3264 5492,3235 5500,3188 5520,3145 5549,3108 5566,3085 5580,3072 5610,3071 M 3589,2518 C 3613,2538 3627,2568 3626,2599 3626,2642 3590,2714 3500,2739 3470,2747 3438,2743 3411,2728"
     style="fill:none;stroke:#713f2a;stroke-width:9" />
  <path
     d="M 3604,2666 C 3619,2676 3628,2693 3626,2712 3626,2727 3616,2746 3600,2764 3568,2799 3524,2820 3476,2821 3446,2822 3417,2813 3392,2796 3365,2779 3346,2752 3338,2721"
     style="fill:none;stroke:#713f2a;stroke-width:9" />
  <path
     d="M 3602,2760 C 3620,2777 3626,2798 3626,2824 3626,2863 3610,2892 3574,2924 3566,2931 3557,2938 3547,2944 M 5367,2633 V 2683 M 5363,2621 V 2691 M 5367,2469 V 2561 M 5363,2449 V 2574 M 5336,3727 C 5322,3757 5302,3784 5278,3807 5254,3831 5226,3850 5196,3864 5167,3879 5135,3889 5103,3895 5072,3902 5039,3906 5007,3907 4977,3908 4947,3907 4918,3905 4881,3902 4860,3897 4823,3894 4797,3890 4770,3889 4744,3888 4717,3888 4690,3890 4663,3894 4638,3898 4614,3905 4590,3915 4553,3930 4510,3957 4501,3968 4492,3957 4449,3930 4411,3915 4388,3905 4364,3898 4339,3894 4312,3890 4285,3888 4258,3888 4231,3889 4205,3890 4179,3894 4142,3897 4121,3902 4084,3905 4055,3907 4025,3908 3995,3907 3963,3906 3930,3902 3898,3895 3866,3889 3835,3879 3806,3864 3776,3850 3748,3831 3724,3807 3721,3804 3719,3801 3716,3798 M 4309,4549 4334,4546 M 4760,4512 4785,4510 4809,4500 4826,4490 4849,4463 4854,4453 4858,4429 4859,4418 M 5519,2496 C 5529,2459 5516,2419 5480,2420 M 3625,3075 C 3616,3103 3598,3126 3574,3141 M 3625,2484 C 3617,2509 3598,2530 3574,2540 3548,2552 3518,2541 3502,2529"
     style="fill:none;stroke:#713f2a;stroke-width:9" />
  <path
     d="M 3428,2620 C 3450,2632 3471,2615 3467,2587 3463,2570 3449,2558 3432,2556"
     style="fill:none;stroke:#713f2a;stroke-width:9;stroke-linecap:round" />
  <path
     d="M 3517,3805 C 3522,3810 3523,3815 3529,3816 3539,3818 3546,3822 3555,3809 3567,3794 3561,3769 3549,3754 3527,3732 3494,3727 3467,3741 3453,3748 3441,3758 3431,3770 3427,3776 3419,3786 3415,3793 3409,3804 3403,3816 3400,3828 3371,3910 3405,3996 3458,4048"
     style="fill:none;stroke:#713f2a;stroke-width:9" />
  <path
     d="M 4784,4385 C 4787,4388 4790,4392 4793,4396 4795,4400 4796,4404 4797,4408 4800,4424 4790,4440 4774,4444 4772,4444 4771,4444 4769,4444 4749,4447 4729,4435 4722,4416"
     style="fill:none;stroke:#713f2a;stroke-width:9;stroke-linecap:round" />
  <path
     d="M 5476,1951 C 5525,1958 5562,2000 5564,2050 5564,2112 5543,2135 5510,2180 5475,2227 5361,2315 5361,2414 5361,2474 5377,2513 5421,2532 5449,2545 5481,2531 5496,2518 5533,2485 5518,2427 5480,2420 5434,2412 5425,2485 5470,2480 M 5721,3451 C 5717,3423 5691,3404 5663,3408 5637,3412 5618,3434 5619,3460 5619,3474 5624,3487 5633,3497"
     style="fill:none;stroke:#713f2a;stroke-width:9" />
  <path
     d="M 5398,2518 C 5373,2538 5360,2568 5361,2599 5361,2642 5397,2714 5487,2739 5521,2748 5554,2748 5574,2735 M 3380,2590 C 3353,2598 3329,2615 3312,2638 3295,2662 3286,2695 3280,2724 3275,2755 3276,2786 3282,2817 3287,2846 3298,2873 3314,2897 3319,2903 3323,2909 3329,2914 3334,2918 3339,2923 3345,2926 M 4245,4221 C 4313,4251 4363,4274 4406,4340 4417,4362 4423,4385 4422,4409 4423,4450 4406,4489 4375,4516 4350,4539 4316,4549 4282,4545 4255,4542 4229,4522 4225,4508 M 3571,2926 C 3610,2956 3626,2986 3626,3032 3628,3075 3606,3115 3570,3137"
     style="fill:none;stroke:#713f2a;stroke-width:9" />
  <path
     d="M 3536,3099 C 3594,3171 3624,3213 3626,3298 3628,3378 3602,3432 3555,3490"
     style="fill:none;stroke:#713f2a;stroke-width:9;stroke-linecap:round" />
  <path
     d="M 4637,2156 C 4647,2148 4655,2137 4659,2124 4666,2103 4666,2085 4655,2069 4669,2087 4670,2103 4666,2125 4663,2139 4655,2146 4643,2156 M 5367,3368 V 3595 H 5368 C 5368,3607 5367,3618 5366,3630 5365,3639 5363,3647 5362,3654"
     style="fill:none;stroke:#713f2a;stroke-width:9" />
  <path
     d="M 5363,3346 V 3591 H 5364 C 5364,3602 5363,3614 5362,3626 5360,3640 5358,3652 5355,3663 M 5363,3059 V 3263 M 5367,3075 V 3241 M 5367,2864 V 2988 M 5363,2849 V 3003 M 5367,2736 V 2785 M 5363,2727 V 2797 M 5337,3713 C 5336,3717 5334,3720 5332,3723 5318,3753 5298,3780 5274,3803 5250,3827 5222,3846 5192,3860 5163,3875 5132,3885 5099,3891 5068,3898 5035,3902 5003,3903 4973,3904 4943,3903 4914,3901 4877,3898 4856,3893 4819,3890 4793,3887 4766,3885 4740,3885 4713,3884 4686,3886 4659,3890 4634,3894 4610,3901 4587,3911 4549,3926 4506,3953 4497,3965 4488,3953 4445,3926 4407,3911 4384,3901 4360,3894 4335,3890 4308,3886 4281,3884 4254,3885 4227,3885 4201,3887 4175,3890 4138,3893 4117,3898 4080,3901 4051,3903 4021,3904 3991,3903 3959,3902 3926,3898 3895,3891 3862,3885 3831,3875 3802,3860 3772,3846 3744,3827 3720,3803 3708,3791 3696,3778 3686,3764 M 3657,3719 C 3662,3758 3651,3797 3626,3827 3614,3840 3588,3864 3556,3864 3502,3865 3487,3828 3483,3819"
     style="fill:none;stroke:#713f2a;stroke-width:9" />
  <path
     d="M 3594,3696 C 3605,3706 3613,3718 3620,3731 3633,3757 3629,3799 3619,3818 3618,3821 3616,3823 3615,3825 M 3330,4078 C 3361,4111 3409,4148 3483,4178 3583,4219 3737,4229 3844,4233 3985,4238 4116,4244 4195,4332 M 4439,4275 C 4462,4298 4486,4322 4496,4354 M 4393,4515 C 4367,4543 4328,4557 4290,4553 4265,4550 4244,4537 4229,4517 M 4154,4476 C 4155,4477 4157,4479 4158,4481 4177,4501 4203,4514 4230,4515 M 4608,4514 C 4590,4542 4546,4584 4501,4601 4455,4584 4412,4542 4394,4514 L 4390,4508 M 4609,4514 C 4612,4518 4615,4521 4619,4524 4645,4547 4679,4557 4713,4553 4737,4550 4758,4537 4770,4516 4773,4513 4775,4510 4776,4506"
     style="fill:none;stroke:#713f2a;stroke-width:9" />
  <path
     d="M 4767,4508 4757,4525 4741,4538 4717,4548 4695,4549"
     style="fill:none;stroke:#713f2a;stroke-width:9" />
  <path
     d="M 4824,4348 C 4838,4359 4849,4373 4856,4389 4860,4400 4863,4411 4863,4423 4864,4444 4857,4465 4843,4481 4824,4502 4796,4515 4767,4516 4765,4516 4763,4516 4761,4516 M 4763,4512 C 4736,4512 4709,4501 4691,4481 M 5586,3527 C 5558,3501 5536,3470 5518,3436 5508,3416 5500,3395 5494,3373 5490,3358 5488,3342 5487,3326 5487,3297 5490,3268 5496,3239 5505,3192 5524,3149 5553,3112 5562,3100 5571,3089 5583,3080 M 5563,2014 C 5599,2017 5632,2055 5632,2093 5631,2148 5613,2170 5570,2224 5533,2270 5421,2351 5424,2429 5426,2443 5431,2457 5440,2468 M 5396,2517 C 5404,2525 5414,2532 5425,2536 5444,2544 5466,2543 5485,2532 M 5187,1925 C 5200,1934 5211,1946 5218,1961 5244,2024 5187,2072 5134,2107 5099,2131 5059,2147 5018,2154"
     style="fill:none;stroke:#713f2a;stroke-width:9" />
  <path
     d="M 5127,2046 C 5110,2046 5093,2038 5082,2025 5078,2021 5075,2017 5072,2011 M 4864,2080 C 4857,2077 4850,2072 4845,2067 4829,2050 4825,2026 4834,2005 4843,1978 4886,1904 4888,1852 4891,1773 4860,1726 4813,1708"
     style="fill:none;stroke:#713f2a;stroke-width:9" />
  <path
     d="M 4884,1834 4882,1864 4874,1894 4858,1936 4846,1962 4834,1989 4828,2008 4825,2021 4827,2034 M 5362,3810 C 5364,3814 5367,3818 5370,3822 5379,3837 5415,3864 5447,3864 5500,3865 5513,3828 5514,3819 5521,3779 5507,3768 5486,3756 5478,3752 5468,3751 5459,3752"
     style="fill:none;stroke:#713f2a;stroke-width:9;stroke-linecap:round" />
  <path
     d="M 3332,3633 C 3315,3637 3297,3637 3280,3633 3240,3621 3208,3583 3224,3535 M 3412,3088 C 3416,3092 3418,3097 3418,3103 3424,3154 3379,3169 3347,3161 3330,3156 3315,3144 3305,3129 3299,3119 3296,3108 3296,3097 M 3606,2764 C 3614,2771 3620,2779 3624,2789 M 3608,2669 C 3614,2674 3620,2680 3624,2687"
     style="fill:none;stroke:#713f2a;stroke-width:9" />
  <path
     d="M 3626,2735 C 3620,2747 3613,2759 3604,2768 3572,2803 3527,2823 3480,2825 3450,2826 3421,2817 3396,2800 3367,2782 3347,2754 3338,2722"
     style="fill:none;stroke:#713f2a;stroke-width:9;stroke-linecap:round" />
  <path
     d="M 3591,2521 C 3607,2533 3618,2550 3625,2568"
     style="fill:none;stroke:#713f2a;stroke-width:9" />
  <path
     d="M 3625,2633 C 3607,2688 3561,2730 3504,2743 3470,2751 3426,2741 3411,2728"
     style="fill:none;stroke:#713f2a;stroke-width:9;stroke-linecap:round" />
  <path
     d="M 3375,2623 C 3379,2660 3404,2688 3451,2689 3517,2690 3557,2594 3498,2526"
     style="fill:none;stroke:#713f2a;stroke-width:9" />
  <path
     d="M 3226,2946 C 3236,2958 3247,2969 3259,2979 3283,3000 3312,3015 3342,3025 M 3417,3032 C 3476,3025 3509,2981 3502,2929 3497,2890 3461,2860 3437,2858"
     style="fill:none;stroke:#713f2a;stroke-width:9;stroke-linecap:round" />
  <path
     d="M 3513,2420 C 3535,2420 3553,2438 3553,2460 3553,2461 3553,2461 3553,2462"
     style="fill:none;stroke:#713f2a;stroke-width:9" />
  <path
     d="M 3507,2068 C 3520,2102 3545,2131 3578,2150 M 5605,2585 C 5629,2618 5614,2683 5548,2685 5522,2685 5499,2671 5485,2649"
     style="fill:none;stroke:#713f2a;stroke-width:9;stroke-linecap:round" />
  <path
     d="M 5367,2153 V 2375"
     style="fill:none;stroke:#713f2a;stroke-width:9" />
  <path
     d="M 3427,2620 C 3448,2634 3474,2610 3464,2583 3457,2566 3432,2546 3397,2570 3358,2596 3369,2679 3443,2681 3509,2682 3549,2586 3490,2518 3434,2453 3331,2468 3264,2521 3214,2564 3179,2621 3164,2685 3159,2708 3156,2732 3156,2756 3157,2815 3175,2872 3206,2921 3211,2929 3218,2937 3224,2944 3233,2953 3242,2962 3251,2971 3289,3003 3338,3028 3398,3025 3464,3022 3502,2976 3495,2921 3488,2868 3434,2842 3399,2867 3376,2884 3367,2936 3409,2948 3433,2955 3454,2925 3437,2907 M 5259,1896 C 5297,1875 5326,1879 5348,1909 5368,1939 5376,1975 5370,2010 5362,2048 5351,2064 5321,2091"
     style="fill:none;stroke:#713f2a;stroke-width:9;stroke-linecap:round" />
  <path
     d="M 5351,1912 C 5394,1884 5441,1896 5467,1934 5486,1962 5491,1986 5489,2020 5486,2074 5456,2123 5409,2150"
     style="fill:none;stroke:#713f2a;stroke-width:9;stroke-linecap:round" />
  <path
     d="M 5555,2013 C 5592,2017 5620,2048 5619,2085 5619,2139 5604,2163 5561,2216 5524,2262 5413,2344 5416,2421 5417,2451 5442,2478 5463,2480"
     style="fill:none;stroke:#713f2a;stroke-width:9" />
  <path
     d="M 5559,2620 C 5539,2634 5513,2611 5524,2586 5532,2568 5555,2546 5590,2570 5629,2596 5618,2679 5544,2681 5478,2682 5433,2588 5496,2518 5554,2454 5661,2466 5728,2520 5757,2543 5814,2605 5827,2687 5842,2786 5840,2908 5737,2983 5694,3013 5641,3028 5589,3025 5523,3022 5485,2976 5492,2921 5499,2868 5550,2846 5587,2867 5626,2888 5619,2943 5577,2948 5553,2951 5533,2925 5549,2907"
     style="fill:none;stroke:#713f2a;stroke-width:9;stroke-linecap:round" />
  <path
     d="M 5524,2586 C 5535,2536 5577,2532 5611,2532 5704,2534 5768,2644 5769,2750 5770,2884 5712,2963 5614,2968 5588,2969 5545,2957 5544,2926"
     style="fill:none;stroke:#713f2a;stroke-width:9" />
  <path
     d="M 5581,2564 C 5679,2585 5713,2673 5713,2757 5713,2826 5707,2920 5573,2953"
     style="fill:none;stroke:#713f2a;stroke-width:9;stroke-linecap:square" />
  <path
     d="M 5742,3506 C 5748,3476 5728,3447 5699,3442 5669,3436 5640,3456 5635,3485 5631,3506 5638,3526 5654,3539"
     style="fill:none;stroke:#713f2a;stroke-width:9" />
  <path
     d="M 5546,3422 C 5568,3457 5598,3486 5634,3506 M 5616,3654 C 5570,3624 5483,3584 5404,3623 5375,3638 5355,3655 5344,3685 5328,3731 5338,3782 5369,3819 5381,3832 5407,3856 5439,3856 5492,3857 5505,3820 5506,3812 5512,3773 5490,3758 5478,3753 5469,3750 5439,3751 5433,3772 5430,3781 5431,3792 5436,3800"
     style="fill:none;stroke:#713f2a;stroke-width:9;stroke-linecap:round" />
  <path
     d="M 4787,4393 C 4802,4423 4785,4438 4765,4441 4735,4444 4719,4420 4717,4399 4714,4365 4740,4335 4774,4332 4775,4332 4777,4332 4778,4332 4809,4333 4837,4352 4848,4381 4852,4392 4855,4403 4855,4415 4856,4436 4849,4457 4835,4473 4816,4494 4788,4507 4759,4508 4700,4510 4654,4455 4654,4398 4654,4289 4815,4230 4878,4215 4957,4196 5004,4189 5130,4182 5181,4180 5218,4181 5273,4175 5316,4172 5358,4165 5400,4156 5465,4142 5526,4111 5576,4066 5617,4029 5640,4002 5659,3951 5676,3907 5683,3820 5642,3755 5610,3703 5557,3668 5496,3660 5444,3653 5398,3675 5370,3728 5357,3753 5361,3795 5372,3814 5386,3839 5411,3854 5439,3856 5492,3857 5505,3820 5506,3811 5512,3773 5490,3758 5478,3753 5469,3750 5439,3751 5433,3772 5430,3781 5431,3792 5436,3800"
     style="fill:none;stroke:#713f2a;stroke-width:9;stroke-linecap:round" />
  <path
     d="M 4742,4221 C 4673,4251 4623,4274 4581,4340 4570,4362 4564,4385 4564,4409 4564,4450 4581,4489 4611,4516 4637,4539 4671,4549 4705,4545 4732,4542 4757,4522 4762,4508"
     style="fill:none;stroke:#713f2a;stroke-width:9;stroke-linecap:round" />
  <path
     d="M 5415,2926 C 5383,2937 5360,2986 5360,3032 5359,3075 5380,3115 5416,3137"
     style="fill:none;stroke:#713f2a;stroke-width:9" />
  <path
     d="M 5450,3099 C 5393,3171 5362,3213 5361,3298 5359,3378 5384,3432 5432,3490"
     style="fill:none;stroke:#713f2a;stroke-width:9;stroke-linecap:round" />
  <path
     d="M 5144,1913 5149,1905 C 5173,1870 5215,1861 5246,1884 5283,1912 5292,1960 5282,2010 5274,2043 5254,2070 5225,2087"
     style="fill:none;stroke:#713f2a;stroke-width:9" />
  <path
     d="M 3727,1896 C 3691,1879 3661,1882 3639,1909 3613,1940 3612,1985 3617,2010 3625,2048 3636,2064 3666,2091"
     style="fill:none;stroke:#713f2a;stroke-width:9;stroke-linecap:round" />
  <path
     d="M 3636,1912 C 3592,1884 3545,1896 3520,1934 3501,1962 3496,1986 3497,2020 3500,2074 3530,2123 3578,2150"
     style="fill:none;stroke:#713f2a;stroke-width:9" />
  <path
     d="M 3511,1951 C 3463,1956 3427,1997 3426,2045 3426,2107 3441,2132 3476,2180 3511,2227 3626,2315 3626,2414 3626,2474 3609,2513 3566,2532 3538,2545 3505,2531 3490,2518 3454,2485 3468,2427 3506,2420 3553,2412 3561,2485 3516,2480"
     style="fill:none;stroke:#713f2a;stroke-width:9" />
  <path
     d="M 3431,2013 C 3396,2015 3361,2046 3361,2084 3361,2138 3382,2163 3425,2216 3462,2262 3567,2342 3564,2420 3563,2449 3543,2485 3524,2481"
     style="fill:none;stroke:#713f2a;stroke-width:9" />
  <path
     d="M 3348,3095 C 3364,3054 3408,3073 3410,3095 3416,3147 3371,3162 3339,3154 3324,3150 3311,3140 3304,3126 3295,3110 3293,3092 3299,3074 3301,3066 3305,3058 3310,3051 3315,3044 3322,3038 3328,3034 3341,3026 3354,3025 3375,3025 3454,3025 3522,3118 3545,3214 3558,3270 3560,3327 3549,3383 3537,3443 3509,3498 3467,3542 3442,3565 3415,3584 3386,3599 3367,3609 3347,3617 3327,3624 3309,3629 3290,3630 3272,3625 3232,3613 3206,3576 3227,3527 3243,3490 3303,3471 3329,3518 3333,3524 3335,3532 3335,3539 3335,3552 3330,3564 3321,3572 3301,3585 3268,3581 3270,3546"
     style="fill:none;stroke:#713f2a;stroke-width:9;stroke-linecap:round" />
  <path
     d="M 3287,3577 C 3301,3583 3309,3582 3328,3574 3335,3570 3344,3565 3354,3559 3390,3539 3432,3507 3472,3432 3483,3412 3491,3391 3496,3369 3500,3354 3502,3338 3503,3322 3504,3293 3501,3264 3494,3235 3486,3188 3467,3145 3437,3108 3421,3085 3407,3072 3377,3071 M 3244,3506 C 3239,3476 3258,3447 3288,3442 3318,3436 3346,3456 3352,3485 3356,3506 3348,3526 3332,3539"
     style="fill:none;stroke:#713f2a;stroke-width:9" />
  <path
     d="M 3265,3451 C 3270,3423 3296,3404 3324,3408 3350,3412 3368,3434 3368,3460 3368,3474 3363,3487 3353,3497"
     style="fill:none;stroke:#713f2a;stroke-width:9" />
  <path
     d="M 3366,3448 C 3420,3407 3453,3343 3453,3275 3453,3217 3430,3157 3403,3134"
     style="fill:none;stroke:#713f2a;stroke-width:9" />
  <path
     d="M 3440,3422 C 3419,3457 3388,3486 3352,3506"
     style="fill:none;stroke:#713f2a;stroke-width:9;stroke-linecap:round" />
  <path
     d="M 3580,3623 C 3567,3592 3541,3578 3499,3574 3457,3569 3420,3581 3383,3601 3311,3640 3270,3682 3243,3760 3235,3786 3231,3813 3231,3841 3233,3891 3246,3946 3259,3973 3271,3996 3303,4099 3475,4170 3575,4211 3730,4221 3836,4225 3982,4231 4117,4236 4196,4333"
     style="fill:none;stroke:#713f2a;stroke-width:9" />
  <path
     d="M 3370,3654 C 3416,3624 3504,3584 3583,3623 3612,3638 3632,3655 3643,3685 3658,3731 3649,3782 3618,3819 3606,3832 3580,3856 3548,3856 3494,3857 3482,3820 3480,3812 3474,3773 3497,3758 3508,3753 3518,3750 3547,3751 3554,3772 3556,3781 3555,3792 3550,3800"
     style="fill:none;stroke:#713f2a;stroke-width:9;stroke-linecap:round" />
  <path
     d="M 3553,3793 C 3558,3776 3554,3758 3541,3746 3519,3724 3486,3719 3459,3733 3445,3740 3433,3750 3423,3762 3419,3768 3411,3778 3407,3785 3401,3796 3395,3808 3392,3820 3357,3918 3413,4023 3484,4068 3546,4107 3609,4118 3686,4125 3722,4128 3743,4129 3779,4131 3808,4132 3833,4131 3856,4131 3876,4131 3894,4131 3913,4131 3947,4129 3981,4130 4014,4132 4055,4135 4086,4136 4121,4142 4143,4145 4170,4149 4198,4155 4206,4157 4214,4159 4223,4161 4229,4163 4234,4165 4240,4166 4288,4180 4334,4200 4377,4225 4390,4232 4401,4240 4412,4250 4419,4257 4425,4261 4431,4267 4458,4293 4486,4322 4492,4361 4493,4368 4493,4376 4493,4383 4493,4408 4473,4443 4417,4454"
     style="fill:none;stroke:#713f2a;stroke-width:9" />
  <path
     d="M 4199,4393 C 4184,4423 4201,4438 4221,4441 4252,4444 4268,4420 4270,4399 4272,4365 4247,4335 4213,4332 4211,4332 4210,4332 4208,4332 4177,4333 4150,4352 4138,4381 4134,4392 4132,4403 4131,4415 4130,4436 4137,4457 4151,4473 4171,4494 4198,4507 4227,4508 4286,4510 4333,4455 4333,4398 4333,4289 4172,4230 4108,4215 4030,4196 3982,4189 3856,4182 3806,4180 3769,4181 3713,4175 3671,4172 3628,4165 3587,4156 3521,4142 3460,4111 3410,4066 3370,4029 3346,4002 3327,3951 3311,3907 3303,3820 3345,3755 3376,3703 3430,3668 3490,3660 3543,3653 3589,3675 3616,3728 3630,3753 3625,3795 3615,3814 3601,3839 3576,3854 3548,3856 3494,3857 3482,3820 3480,3811 3474,3773 3497,3758 3508,3753 3518,3750 3547,3751 3554,3772 3556,3781 3555,3792 3550,3800"
     style="fill:none;stroke:#713f2a;stroke-width:9" />
  <path
     d="M 3842,1913 C 3841,1910 3839,1908 3837,1905 3814,1870 3771,1861 3741,1884 3704,1912 3694,1960 3704,2010 3712,2043 3733,2070 3761,2087"
     style="fill:none;stroke:#713f2a;stroke-width:9;stroke-linecap:round" />
  <path
     d="M 5157,2019 C 5100,2080 5044,2100 4959,2103 4932,2104 4882,2094 4852,2073 4834,2060 4813,2037 4826,1997 4835,1970 4878,1896 4880,1844 4883,1765 4852,1721 4805,1705 4717,1674 4622,1761 4566,1780 4542,1788 4518,1792 4494,1791 4469,1792 4444,1788 4421,1780 4364,1761 4270,1674 4182,1705 4134,1721 4104,1765 4107,1844 4109,1896 4152,1970 4161,1997 4174,2037 4153,2060 4134,2073 4105,2094 4054,2104 4028,2103 3943,2100 3886,2080 3830,2019"
     style="fill:none;stroke:#713f2a;stroke-width:9" />
  <path
     d="M 4181,4196 C 4192,4200 4183,4193 4254,4225 4323,4255 4371,4281 4413,4348 4425,4369 4431,4393 4430,4417 4430,4429 4429,4440 4426,4452"
     style="fill:none;stroke:#713f2a;stroke-width:9;stroke-linecap:round" />
  <path
     d="M 4185,4500 C 4200,4507 4215,4511 4231,4512 4290,4514 4337,4458 4337,4402 4337,4362 4315,4329 4285,4303"
     style="fill:none;stroke:#713f2a;stroke-width:9" />
  <path
     d="M 4198,4393 C 4184,4425 4204,4442 4225,4444 4249,4447 4271,4430 4274,4406 4274,4405 4274,4404 4274,4403 4276,4379 4264,4357 4244,4344"
     style="fill:none;stroke:#713f2a;stroke-width:9;stroke-linecap:round" />
  <path
     d="M 5485,1951 C 5530,1951 5570,2002 5570,2053 5570,2113 5538,2149 5515,2177 5496,2199 5476,2218 5452,2243"
     style="fill:none;stroke:#713f2a;stroke-width:9" />
  <path
     d="M 5432,1904 C 5448,1911 5461,1923 5471,1938 5490,1966 5495,1989 5493,2024 5491,2084 5448,2125 5410,2150 M 5343,1904 C 5346,1907 5349,1910 5352,1913 5378,1944 5380,1989 5374,2014 5364,2052 5352,2069 5321,2091 M 5250,1888 C 5287,1916 5298,1965 5286,2014 5277,2050 5254,2071 5226,2088 M 5383,2666 C 5387,2679 5395,2684 5404,2693 5428,2717 5458,2734 5491,2743 5521,2752 5553,2747 5579,2730 M 3287,3490 C 3305,3490 3322,3502 3333,3522 3337,3528 3339,3536 3339,3543 3339,3555 3334,3567 3325,3574 3304,3587 3269,3582 3270,3546"
     style="fill:none;stroke:#713f2a;stroke-width:9;stroke-linecap:round" />
  <path
     d="M 3395,3027 C 3465,3040 3532,3124 3553,3215 3566,3270 3567,3328 3557,3384 3545,3444 3517,3499 3475,3542 3465,3552 3455,3560 3445,3568 L 3430,3578 M 3318,3408 C 3347,3408 3372,3435 3372,3464 3372,3478 3367,3491 3357,3501"
     style="fill:none;stroke:#713f2a;stroke-width:9" />
  <path
     d="M 3299,3441 C 3331,3443 3356,3468 3357,3500 3357,3516 3349,3532 3336,3543"
     style="fill:none;stroke:#713f2a;stroke-width:9" />
  <path
     d="M 3571,3142 C 3598,3179 3616,3210 3625,3251 M 3624,3370 C 3619,3390 3612,3409 3603,3427 3590,3452 3573,3474 3553,3492"
     style="fill:none;stroke:#713f2a;stroke-width:9;stroke-linecap:round" />
  <path
     d="M 3575,2929 C 3599,2946 3616,2969 3625,2996"
     style="fill:none;stroke:#713f2a;stroke-width:9" />
  <path
     d="M 3626,2861 C 3619,2885 3603,2903 3578,2926 M 3449,2684 3480,2676 3498,2662 3509,2646 3519,2620 3523,2600"
     style="fill:none;stroke:#713f2a;stroke-width:9;stroke-linecap:round" />
  <path
     d="M 3388,2577 C 3376,2580 3365,2584 3354,2589 3334,2598 3317,2613 3304,2630 3287,2654 3278,2687 3272,2716 3267,2747 3268,2779 3274,2809 3279,2838 3290,2865 3306,2889 3311,2895 3315,2902 3321,2907 3339,2926 3356,2937 3384,2931"
     style="fill:none;stroke:#713f2a;stroke-width:9" />
  <path
     d="M 3558,2444 C 3553,2462 3543,2484 3515,2482"
     style="fill:none;stroke:#713f2a;stroke-width:9;stroke-linecap:round" />
  <path
     d="M 3454,2566 C 3427,2540 3369,2533 3312,2569 3304,2574 3297,2580 3290,2586 3282,2592 3276,2600 3270,2608 3262,2619 3256,2630 3250,2642 3244,2654 3240,2667 3237,2680 3229,2708 3226,2738 3228,2768 3229,2781 3231,2794 3233,2805 3238,2836 3249,2865 3264,2892 3277,2913 3308,2961 3373,2968 3398,2970 3441,2959 3443,2926"
     style="fill:none;stroke:#713f2a;stroke-width:9" />
  <path
     d="M 5115,1983 C 5119,1960 5147,1956 5158,1969 5174,1990 5163,2027 5130,2037 5110,2042 5089,2034 5076,2017 5057,1990 5063,1952 5091,1932 5091,1932 5092,1931 5093,1931 5131,1902 5193,1908 5214,1957 5240,2020 5183,2068 5130,2103 5064,2148 4989,2157 4932,2156 4803,2155 4706,2093 4642,2058 4627,2050 4612,2052 4604,2061 4595,2073 4596,2089 4608,2099"
     style="fill:none;stroke:#713f2a;stroke-width:9;stroke-linecap:round" />
  <path
     d="M 5141,1962 C 5150,1961 5158,1965 5162,1973 5179,1994 5167,2030 5134,2041 M 5385,2765 C 5336,2819 5381,2911 5417,2931 5430,2941 5435,2936 5446,2942"
     style="fill:none;stroke:#713f2a;stroke-width:9;stroke-linecap:round" />
  <path
     d="M 5387,2663 C 5371,2675 5365,2687 5365,2709 5363,2730 5370,2750 5385,2765 5411,2793 5464,2818 5514,2818 5545,2819 5574,2810 5599,2794 5626,2776 5645,2749 5653,2718 M 5360,3587 C 5360,3599 5359,3610 5358,3622 5350,3689 5319,3752 5270,3799 5246,3823 5218,3842 5188,3856 5159,3871 5128,3881 5095,3887 5064,3894 5031,3898 4999,3899 4969,3900 4939,3899 4910,3897 4873,3894 4852,3889 4815,3886 4789,3883 4762,3881 4736,3881 4709,3880 4682,3882 4655,3886 4630,3890 4606,3897 4583,3907 4545,3922 4502,3949 4493,3961 4484,3949 4441,3922 4403,3907 4380,3897 4356,3890 4331,3886 4304,3882 4277,3880 4250,3881 4223,3881 4197,3883 4171,3886 4134,3889 4113,3894 4076,3897 4047,3899 4017,3900 3987,3899 3955,3898 3922,3894 3890,3887 3858,3881 3827,3871 3798,3856 3768,3842 3740,3823 3716,3799 3667,3752 3636,3689 3628,3622 3627,3610 3626,3599 3626,3587 V 2156 H 5359 V 3587 H 5360 Z"
     style="fill:none;stroke:#713f2a;stroke-width:9" />
  <path
     d="M 3486,3791 C 3486,3772 3502,3756 3521,3756 3541,3756 3556,3772 3557,3791 V 3791 C 3556,3811 3541,3827 3521,3827 3502,3826 3486,3811 3486,3791 Z M 3270,3543 C 3270,3526 3281,3511 3295,3511 3309,3511 3320,3526 3320,3543 3320,3560 3309,3574 3295,3574 3281,3574 3270,3560 3270,3543 Z"
     style="fill:#c6aa76;stroke:#c7b37f;stroke-width:5" />
  <path
     d="M 3393,2919 C 3394,2905 3405,2896 3419,2897 3432,2898 3442,2909 3441,2922 3440,2935 3430,2945 3417,2945 3403,2944 3392,2932 3393,2919 Z M 3824,1996 C 3824,1983 3835,1974 3847,1975 3860,1976 3869,1986 3868,1999 3868,2009 3859,2018 3848,2019 3835,2020 3824,2009 3824,1996 Z"
     style="fill:#c6aa76;stroke-width:9" />
  <path
     d="M 3365,3064 C 3356,3068 3349,3075 3346,3084 3344,3090 3342,3095 3342,3101 M 3408,3477 C 3413,3471 3416,3468 3421,3462 3424,3458 3428,3453 3431,3449 3434,3444 3435,3441 3438,3436 3442,3429 3444,3425 3447,3417 M 3429,3613 C 3421,3617 3416,3619 3408,3623 3402,3626 3399,3628 3393,3632 3386,3636 3382,3639 3375,3644 3368,3649 3365,3652 3358,3658 M 3569,3125 C 3564,3120 3562,3117 3557,3113 3552,3108 3550,3105 3544,3101 3539,3097 3536,3095 3531,3091"
     style="fill:none;stroke:#c7b37f;stroke-width:9;stroke-linecap:round" />
  <path
     d="M 3574,2938 C 3568,2941 3563,2943 3557,2945 3550,2948 3543,2949 3536,2950"
     style="fill:none;stroke:#c7b37f;stroke-width:9" />
  <path
     d="M 3339,2706 C 3340,2713 3342,2720 3344,2727 3348,2735 3352,2743 3357,2751 3362,2759 3368,2766 3375,2773 3381,2779 3388,2784 3395,2788 3402,2792 3409,2796 3416,2799 M 3402,2717 C 3408,2721 3413,2724 3419,2726 3425,2729 3431,2731 3436,2732 3444,2734 3453,2735 3461,2735 3469,2735 3478,2734 3487,2733 M 3588,2161 C 3576,2154 3570,2151 3559,2144 3549,2138 3541,2131 3533,2123 3527,2117 3521,2111 3516,2105 3511,2098 3509,2093 3505,2086 M 3610,2022 C 3613,2030 3616,2038 3619,2046 3624,2057 3631,2066 3639,2075 3652,2089 3663,2093 3678,2104 M 3698,2021 C 3701,2028 3704,2036 3707,2043 3711,2049 3714,2055 3719,2060 3724,2067 3731,2073 3738,2078 3746,2084 3755,2090 3764,2094"
     style="fill:none;stroke:#c7b37f;stroke-width:9;stroke-linecap:round" />
  <path
     style="fill:#713f2a;stroke:#713f2a;stroke-width:2"
     d="M 4687,1907 C 4686,1883 4662,1880 4653,1880 4627,1880 4620,1897 4588,1914 4547,1936 4530,1941 4494,1941 4458,1941 4440,1936 4399,1914 4367,1897 4361,1881 4335,1881 4317,1881 4303,1897 4304,1915 4304,1915 4304,1915 4304,1915 4303,1919 4304,1924 4304,1928 4305,1929 4307,1929 4308,1930 4307,1922 4310,1913 4315,1907 4321,1900 4329,1895 4338,1895 4364,1895 4373,1912 4406,1929 4446,1951 4464,1956 4500,1956 4536,1956 4554,1951 4595,1929 4627,1912 4636,1893 4662,1893 4671,1894 4679,1900 4681,1908 4682,1912 4682,1916 4682,1920 4682,1921 4684,1921 4684,1922 4686,1917 4687,1912 4687,1907 Z" />
  <path
     style="fill:#713f2a;stroke-width:9"
     d="M 3718,3909 C 3725,3901 3730,3904 3732,3901 3733,3898 3731,3898 3728,3897 3724,3895 3719,3894 3715,3893 3711,3891 3708,3889 3704,3888 3702,3887 3698,3885 3697,3888 3695,3894 3711,3893 3706,3908 3703,3914 3699,3920 3694,3925 L 3657,3965 C 3656,3966 3655,3968 3654,3968 3653,3968 3653,3965 3653,3964 L 3654,3906 C 3653,3898 3654,3890 3656,3883 3659,3876 3666,3882 3668,3877 3669,3875 3668,3875 3664,3873 3662,3872 3657,3871 3648,3868 3643,3866 3639,3863 3634,3862 3632,3861 3628,3858 3627,3862 3626,3863 3628,3865 3628,3865 3633,3868 3635,3873 3635,3878 L 3636,3983 C 3636,3990 3637,3992 3638,3993 3640,3994 3641,3993 3644,3989 L 3718,3909 Z" />
  <path
     style="fill:#713f2a;stroke-width:9"
     d="M 3761,3925 C 3766,3910 3775,3919 3777,3914 3777,3912 3777,3912 3772,3910 3764,3908 3759,3907 3753,3905 3748,3903 3743,3901 3737,3899 3736,3899 3733,3897 3732,3900 3730,3905 3748,3906 3743,3921 L 3719,3998 C 3714,4013 3705,4005 3703,4011 3703,4012 3703,4013 3704,4013 3708,4015 3714,4016 3721,4018 3732,4021 3737,4024 3742,4025 3746,4026 3747,4026 3748,4024 3749,4019 3731,4022 3737,4002 L 3761,3925 Z M 3813,3941 C 3816,3931 3820,3933 3826,3934 3840,3938 3845,3953 3840,3969 3838,3978 3834,3987 3812,3980 3808,3979 3802,3977 3803,3973 L 3813,3941 Z M 3773,4010 C 3767,4030 3757,4022 3755,4027 3755,4030 3758,4030 3759,4031 3767,4033 3774,4035 3782,4037 3788,4039 3792,4040 3794,4041 3797,4042 3799,4042 3799,4040 3801,4034 3785,4037 3790,4019 L 3798,3992 C 3800,3986 3799,3985 3807,3987 3814,3989 3816,3991 3818,3999 L 3822,4028 C 3824,4039 3826,4051 3837,4054 3843,4056 3853,4055 3855,4050 3855,4049 3855,4047 3854,4047 3853,4047 3853,4047 3853,4047 3852,4047 3850,4047 3849,4047 3847,4046 3845,4045 3844,4043 3840,4019 3834,3992 3835,3991 3835,3990 3840,3989 3845,3987 3852,3984 3858,3977 3859,3969 3862,3962 3866,3938 3834,3929 3824,3926 3814,3924 3804,3921 3795,3918 3794,3917 3788,3915 3786,3915 3784,3915 3784,3917 3782,3923 3799,3921 3794,3939 L 3773,4010 Z M 3892,4045 C 3887,4064 3872,4052 3871,4059 3870,4062 3872,4063 3875,4063 3881,4065 3886,4065 3896,4068 3906,4070 3910,4072 3916,4073 3920,4074 3923,4076 3924,4072 3925,4067 3905,4067 3910,4047 L 3928,3973 C 3930,3966 3931,3965 3937,3967 L 3950,3970 C 3967,3973 3958,3990 3964,3991 3968,3992 3968,3986 3968,3983 L 3970,3968 C 3970,3966 3971,3964 3968,3964 3955,3960 3945,3959 3923,3953 3902,3948 3892,3945 3878,3942 3876,3941 3876,3944 3875,3945 L 3868,3966 C 3867,3968 3865,3972 3868,3973 3875,3974 3875,3952 3892,3956 L 3904,3959 C 3910,3960 3912,3961 3910,3969 L 3892,4045 Z M 4070,3999 C 4076,3990 4082,3992 4083,3988 4083,3986 4081,3986 4078,3985 4074,3984 4069,3984 4065,3984 4061,3983 4057,3981 4053,3980 4051,3980 4047,3979 4046,3982 4045,3988 4061,3984 4058,4000 4057,4007 4054,4013 4050,4019 L 4020,4065 C 4020,4066 4019,4068 4018,4068 4017,4068 4016,4065 4016,4064 L 4007,4007 C 4005,4000 4005,3992 4005,3984 4007,3977 4015,3981 4016,3976 4016,3974 4016,3974 4011,3973 4008,3972 4004,3972 3995,3970 3990,3969 3985,3968 3980,3967 3977,3967 3973,3964 3972,3968 3972,3969 3974,3971 3974,3971 3979,3973 3983,3978 3983,3983 L 4002,4086 C 4004,4093 4005,4095 4006,4096 4008,4096 4009,4095 4011,4091 L 4070,3999 Z M 4079,4094 C 4079,4098 4078,4099 4082,4101 4089,4105 4098,4109 4106,4111 4126,4115 4142,4102 4145,4080 4149,4059 4140,4051 4126,4040 4107,4027 4100,4023 4101,4012 4102,4004 4109,3997 4118,3997 4119,3997 4120,3998 4121,3998 4146,4002 4144,4033 4147,4034 4150,4034 4151,4032 4151,4029 L 4153,4006 C 4154,4002 4155,4000 4152,4000 4150,3999 4146,4001 4144,4001 4140,4000 4135,3993 4122,3991 4105,3988 4091,4000 4088,4019 4085,4036 4092,4044 4104,4053 4126,4068 4135,4072 4133,4086 4132,4097 4122,4105 4111,4104 4110,4104 4109,4104 4109,4104 4092,4101 4086,4084 4083,4068 4083,4066 4083,4064 4081,4064 4077,4063 4078,4068 4078,4070 L 4079,4094 Z M 4301,4031 C 4306,4022 4312,4023 4312,4019 4313,4016 4310,4017 4307,4016 4303,4016 4299,4016 4295,4016 4290,4016 4286,4015 4282,4014 4280,4014 4275,4013 4275,4016 4275,4022 4290,4017 4289,4033 4288,4040 4286,4046 4283,4052 L 4258,4102 C 4258,4103 4257,4105 4256,4105 4255,4105 4254,4103 4254,4101 L 4239,4046 C 4236,4038 4235,4030 4235,4022 4235,4015 4244,4019 4245,4014 4245,4011 4244,4011 4239,4011 4237,4011 4232,4011 4223,4010 4218,4010 4213,4009 4208,4008 4205,4008 4201,4007 4200,4011 4200,4012 4202,4013 4203,4013 4208,4014 4212,4019 4213,4024 L 4243,4124 C 4245,4132 4246,4133 4248,4134 4249,4134 4250,4133 4252,4129 L 4301,4031 Z" />
  <path
     style="fill:#713f2a;stroke-width:9"
     d="M 4325,4113 C 4325,4130 4310,4126 4310,4133 4310,4136 4313,4135 4315,4135 4319,4135 4323,4135 4328,4135 4333,4135 4338,4135 4346,4136 4348,4136 4351,4136 4351,4133 4352,4125 4332,4137 4332,4104 L 4333,4047 C 4333,4046 4333,4045 4334,4045 4335,4045 4336,4046 4337,4047 L 4409,4135 C 4409,4136 4411,4137 4413,4137 4414,4137 4414,4136 4414,4132 L 4415,4038 C 4415,4020 4428,4025 4428,4020 4428,4019 4428,4017 4425,4017 4424,4017 4419,4018 4409,4018 4399,4018 4394,4017 4392,4017 4390,4017 4390,4019 4390,4020 4390,4025 4408,4023 4408,4038 L 4407,4094 C 4407,4098 4407,4100 4406,4100 4405,4100 4403,4098 4402,4096 L 4341,4021 C 4339,4018 4341,4017 4336,4017 4328,4016 4324,4017 4320,4017 4317,4017 4314,4016 4311,4016 4310,4016 4309,4017 4309,4019 4309,4019 4309,4019 4309,4019 4309,4027 4326,4016 4325,4049 L 4325,4113 Z M 4471,4037 C 4471,4021 4483,4027 4483,4021 4483,4019 4482,4019 4477,4019 4469,4019 4463,4020 4458,4019 4453,4019 4447,4019 4441,4019 4440,4019 4436,4018 4436,4021 4436,4027 4452,4022 4452,4038 L 4452,4118 C 4452,4134 4441,4130 4441,4136 4441,4136 4441,4138 4443,4138 4446,4138 4453,4137 4459,4137 4471,4137 4477,4138 4482,4138 4486,4138 4487,4137 4487,4135 4487,4130 4470,4138 4471,4117 Z M 4535,4115 C 4535,4135 4518,4127 4518,4134 4518,4137 4520,4137 4523,4137 4529,4137 4534,4136 4544,4136 4554,4136 4559,4137 4565,4137 4570,4137 4573,4137 4573,4133 4573,4128 4553,4133 4553,4113 L 4553,4037 C 4552,4029 4554,4028 4560,4028 L 4573,4028 C 4590,4027 4586,4046 4592,4046 4596,4046 4594,4039 4594,4037 L 4592,4022 C 4592,4020 4592,4018 4589,4018 4575,4018 4565,4018 4543,4019 4521,4019 4511,4018 4497,4018 4495,4018 4495,4021 4494,4022 L 4492,4045 C 4492,4047 4491,4050 4494,4050 4501,4050 4496,4028 4513,4028 L 4526,4028 C 4532,4028 4534,4029 4534,4037 L 4535,4115 Z M 4623,4083 C 4620,4083 4618,4084 4618,4082 4618,4080 4618,4078 4619,4076 L 4628,4045 C 4629,4043 4629,4043 4630,4043 4630,4043 4630,4043 4631,4044 L 4646,4074 C 4647,4075 4647,4078 4648,4080 4648,4081 4646,4081 4643,4082 L 4623,4083 Z M 4648,4090 C 4652,4090 4653,4092 4659,4104 4661,4108 4662,4111 4663,4115 4664,4125 4653,4124 4653,4129 4653,4132 4655,4131 4658,4131 4662,4131 4668,4129 4675,4129 4685,4128 4689,4128 4694,4128 4698,4128 4700,4128 4699,4125 4699,4120 4691,4127 4685,4115 L 4637,4016 C 4634,4011 4634,4011 4633,4011 4631,4011 4630,4014 4629,4017 L 4597,4122 C 4594,4131 4586,4131 4586,4135 4586,4137 4589,4136 4591,4136 4595,4136 4599,4135 4604,4134 4609,4134 4613,4134 4618,4134 4621,4134 4626,4135 4626,4131 4625,4127 4609,4131 4608,4118 4609,4114 4609,4109 4611,4105 4613,4094 4616,4093 4619,4093 L 4648,4090 Z M 4765,4021 C 4764,4009 4764,4009 4782,4006 4811,4003 4802,4024 4809,4023 4813,4022 4811,4017 4811,4015 L 4808,3998 C 4808,3997 4806,3995 4805,3996 4805,3996 4805,3996 4805,3996 4791,3997 4781,3999 4771,4001 4748,4004 4737,4005 4731,4005 4729,4005 4728,4007 4728,4008 4728,4008 4728,4009 4728,4009 4729,4015 4745,4008 4747,4023 L 4757,4101 C 4760,4121 4747,4113 4748,4121 4748,4122 4749,4123 4751,4123 4759,4121 4766,4120 4770,4119 4777,4118 4783,4118 4788,4118 4792,4117 4795,4117 4795,4114 4794,4110 4778,4116 4775,4098 L 4772,4073 C 4771,4063 4770,4061 4777,4060 L 4788,4059 C 4804,4057 4802,4075 4807,4074 4810,4074 4808,4068 4808,4066 L 4803,4036 C 4802,4032 4801,4033 4800,4033 4797,4033 4798,4048 4785,4050 L 4776,4051 C 4769,4052 4769,4051 4768,4044 L 4765,4021 Z M 4821,4059 C 4827,4092 4851,4111 4881,4105 4928,4097 4930,4054 4925,4031 4919,3996 4893,3979 4864,3985 4829,3992 4814,4023 4821,4059 Z M 4837,4046 C 4833,4022 4836,3998 4861,3993 4880,3989 4902,4005 4908,4041 4913,4069 4909,4092 4884,4097 4857,4103 4842,4070 4837,4046 Z M 4954,3987 C 4952,3978 4956,3977 4962,3975 4977,3972 4988,3982 4992,3998 4994,4007 4995,4017 4973,4022 4969,4023 4963,4025 4962,4020 L 4954,3987 Z M 4954,4067 C 4959,4088 4946,4085 4947,4091 4948,4094 4951,4093 4953,4092 4960,4091 4967,4088 4975,4086 4981,4085 4985,4084 4988,4084 4991,4083 4992,4082 4992,4080 4991,4074 4978,4085 4973,4067 L 4967,4039 C 4965,4033 4964,4032 4972,4030 4978,4028 4984,4030 4987,4036 L 5006,4059 C 5013,4067 5020,4076 5031,4073 5037,4072 5046,4066 5045,4061 5045,4060 5044,4059 5042,4059 5042,4059 5042,4059 5042,4059 5041,4060 5040,4061 5038,4061 5036,4062 5034,4062 5032,4060 5017,4042 4998,4021 4998,4020 4998,4019 5002,4016 5005,4011 5010,4005 5011,3997 5009,3989 5007,3981 4998,3959 4966,3967 4956,3969 4947,3972 4937,3975 4927,3977 4926,3976 4919,3978 4918,3978 4916,3980 4917,3981 4918,3987 4933,3977 4937,3996 L 4954,4067 Z M 5076,4040 C 5081,4060 5062,4056 5064,4062 5065,4066 5067,4065 5070,4065 5076,4063 5080,4061 5090,4059 5100,4056 5105,4055 5111,4054 5115,4053 5118,4053 5117,4049 5116,4044 5098,4054 5093,4034 L 5074,3960 C 5072,3952 5073,3951 5079,3950 L 5092,3946 C 5108,3941 5108,3961 5114,3959 5118,3958 5115,3952 5114,3950 L 5109,3936 C 5108,3934 5107,3932 5105,3933 5092,3936 5082,3939 5061,3945 5039,3950 5029,3952 5016,3956 5013,3956 5014,3959 5014,3960 L 5018,3982 C 5018,3985 5018,3988 5021,3988 5027,3986 5018,3966 5034,3961 L 5046,3958 C 5052,3957 5054,3957 5056,3965 L 5076,4040 Z M 5153,3937 C 5149,3922 5161,3925 5160,3919 5159,3917 5158,3917 5154,3918 5146,3921 5141,3923 5135,3924 5130,3926 5124,3926 5119,3928 5117,3928 5114,3929 5114,3932 5116,3937 5131,3928 5135,3943 L 5157,4021 C 5161,4036 5149,4035 5151,4040 5151,4041 5152,4042 5153,4042 5157,4041 5163,4038 5169,4037 5181,4034 5186,4033 5192,4031 5195,4030 5196,4029 5196,4027 5194,4022 5180,4034 5174,4014 L 5153,3937 Z M 5185,3975 C 5196,4007 5222,4022 5251,4012 5297,3997 5293,3955 5285,3933 5274,3899 5246,3886 5218,3895 5184,3907 5173,3940 5185,3975 Z M 5200,3960 C 5192,3937 5192,3912 5216,3904 5234,3897 5258,3910 5270,3945 5279,3971 5278,3995 5253,4004 5228,4013 5207,3983 5200,3960 Z M 5307,3884 C 5303,3874 5308,3872 5313,3870 5327,3865 5339,3873 5346,3889 5349,3898 5352,3907 5330,3915 5326,3917 5321,3919 5319,3915 L 5307,3884 Z M 5318,3963 C 5326,3982 5313,3982 5314,3987 5316,3990 5318,3988 5320,3988 5327,3985 5334,3981 5341,3978 5347,3976 5351,3975 5354,3974 5357,3973 5358,3972 5357,3970 5355,3965 5344,3977 5337,3960 L 5326,3933 C 5324,3927 5323,3927 5330,3924 5336,3920 5343,3922 5346,3927 L 5368,3947 C 5376,3954 5384,3962 5395,3958 5401,3956 5409,3949 5407,3944 5407,3943 5405,3942 5404,3942 5404,3942 5404,3942 5404,3942 5403,3943 5402,3944 5400,3945 5398,3946 5396,3946 5394,3944 5376,3929 5355,3911 5355,3910 5354,3908 5358,3905 5361,3900 5364,3893 5364,3885 5361,3877 5358,3870 5347,3849 5316,3861 5307,3865 5297,3870 5288,3873 5279,3877 5278,3877 5271,3879 5269,3880 5268,3881 5269,3883 5271,3888 5284,3876 5291,3894 L 5318,3963 Z" />
  <path
     style="fill:#d52b1e;stroke-width:9"
     d="M 3713,2243 H 4453 V 2981 H 3713 Z" />
  <path
     id="a"
     style="fill:#ffffff;stroke-width:9"
     d="M 4060,2824 C 4060,2840 4057,2856 4053,2872 4044,2896 4044,2896 4036,2908 4028,2922 4016,2934 4002,2943 3987,2954 3968,2959 3949,2958 3899,2954 3876,2900 3865,2857 3853,2811 3819,2786 3798,2802 3785,2812 3785,2829 3795,2844 3805,2856 3818,2865 3832,2869 L 3806,2903 C 3771,2897 3744,2871 3738,2837 3734,2814 3744,2772 3782,2760 3829,2744 3860,2778 3875,2807 3895,2846 3904,2918 3960,2907 3990,2901 4004,2857 4004,2837 L 4027,2813 4059,2823 4060,2824 Z" />
  <path
     id="a-2"
     style="fill:#ffffff;stroke-width:9"
     d="M 4106,2824 C 4107,2840 4109,2856 4114,2872 4122,2896 4123,2896 4130,2908 4139,2922 4151,2934 4165,2943 4180,2954 4199,2959 4218,2958 4267,2954 4290,2900 4302,2857 4313,2811 4347,2786 4369,2802 4381,2812 4382,2829 4372,2844 4362,2856 4349,2865 4335,2869 L 4361,2903 C 4395,2897 4423,2871 4429,2837 4433,2814 4422,2772 4385,2760 4337,2744 4307,2778 4292,2807 4272,2846 4263,2918 4207,2907 4177,2901 4162,2857 4162,2837 L 4140,2813 4107,2823 4106,2824 Z" />
  <path
     style="fill:#fedd00;stroke-width:9"
     d="M 4150,2510 4246,2405 C 4255,2398 4261,2386 4261,2375 L 4241,2378 4236,2367 4235,2357 4262,2351 C 4263,2347 4262,2344 4263,2339 4264,2335 4265,2332 4266,2328 L 4237,2330 C 4238,2325 4238,2322 4239,2317 4240,2314 4242,2310 4244,2307 4249,2306 4254,2305 4261,2304 4268,2304 4271,2304 4278,2304 4294,2274 4361,2246 4408,2296 4442,2331 4435,2397 4390,2414 4370,2423 4345,2419 4329,2404 L 4346,2369 C 4371,2384 4391,2365 4390,2347 4389,2325 4372,2307 4351,2306 4330,2304 4316,2316 4307,2334 4301,2345 4303,2353 4302,2365 4301,2377 4299,2388 4297,2400 4292,2412 4285,2423 4275,2432 L 4176,2540 3790,2958 3761,2931 4150,2510 Z" />
  <path
     style="fill:#ffffff;stroke-width:9"
     d="M 3865,2547 C 3865,2547 3889,2667 3972,2848 4014,2832 4039,2823 4083,2823 4128,2823 4152,2831 4194,2848 4277,2667 4301,2547 4301,2547 L 4083,2266 Z" />
  <path
     style="fill:#fedd00;stroke-width:9"
     d="M 4105,2361 4256,2556 C 4256,2556 4236,2651 4174,2793 4151,2787 4128,2783 4105,2781 L 4105,2361 Z M 4062,2361 3911,2556 C 3911,2556 3931,2651 3992,2793 4015,2787 4038,2783 4062,2781 L 4062,2361 Z" />
  <path
     style="fill:#fedd00;stroke-width:9"
     d="M 4532,2243 H 5272 V 2981 H 4532 Z" />
  <path
     style="fill:#d52b1e;stroke-width:9"
     d="M 4635,2243 H 4746 V 2981 H 4635 Z M 4847,2243 H 4957 V 2981 H 4847 Z M 5058,2243 H 5168 V 2981 H 5058 Z" />
  <path
     style="fill:#fedd00;stroke-width:9"
     d="M 3716,3621 C 3719,3642 3726,3662 3736,3681 3749,3702 3744,3701 3774,3735 3791,3751 3809,3765 3830,3775 3850,3785 3870,3793 3892,3798 3940,3811 3991,3815 4041,3812 4072,3810 4103,3807 4133,3802 4166,3798 4200,3795 4233,3793 4252,3793 4271,3792 4289,3793 4311,3795 4333,3798 4354,3802 4388,3810 4421,3819 4453,3831 L 4453,3060 3713,3060 V 3587 C 3713,3587 3715,3613 3716,3621 Z" />
  <path
     style="fill:#d52b1e;stroke:#d52b1e;stroke-width:5"
     d="M 3802,3756 3837,3777 3884,3794 3884,3060 H 3802 Z M 4213,3790 4213,3060 H 4131 V 3801 C 4131,3801 4187,3794 4213,3793 Z M 4377,3060 H 4295 V 3792 C 4323,3795 4350,3800 4377,3808 Z M 4049,3060 V 3810 C 4021,3811 3994,3811 3966,3810 L 3966,3060 Z" />
  <path
     d="M 5269,3621 C 5266,3642 5259,3662 5249,3680 5236,3701 5241,3701 5211,3734 5194,3751 5176,3765 5155,3775 5135,3785 5115,3793 5093,3797 5045,3810 4994,3815 4944,3812 4913,3810 4882,3807 4852,3802 4819,3797 4785,3794 4752,3793 4733,3792 4714,3792 4697,3793 4674,3795 4652,3798 4631,3802 4597,3809 4564,3819 4531,3831 L 4532,3060 5272,3060 V 3587 C 5272,3587 5270,3612 5269,3621 Z"
     style="fill:#fedd00;stroke-width:9" />
  <path
     style="fill:#d52b1e;stroke-width:9"
     d="M 4721,3122 C 4721,3122 4718,3123 4716,3124 4714,3127 4711,3129 4709,3132 4705,3134 4701,3137 4697,3139 4695,3140 4694,3141 4692,3143 4690,3146 4691,3149 4690,3152 4688,3155 4686,3158 4684,3161 4681,3164 4678,3167 4674,3170 4672,3173 4668,3176 4665,3179 4664,3179 4663,3180 4661,3180 4660,3181 4658,3180 4656,3181 4653,3182 4652,3186 4649,3187 4650,3189 4650,3191 4651,3193 4653,3195 4658,3203 4659,3205 4661,3208 4661,3212 4663,3213 4667,3214 4671,3214 4675,3214 4681,3214 4688,3216 4694,3218 4699,3220 4701,3223 4707,3225 4710,3227 4714,3229 4718,3229 4721,3230 4724,3230 4727,3230 4730,3230 4731,3229 4733,3229 4733,3229 4734,3229 4734,3229 L 4734,3232 C 4734,3232 4734,3232 4734,3232 V 3233 H 4734 L 4753,3241 C 4751,3244 4750,3248 4751,3252 4756,3269 4761,3280 4764,3281 4769,3283 4771,3289 4774,3294 4773,3296 4772,3296 4771,3297 4765,3302 4760,3307 4756,3313 4750,3324 4745,3324 4753,3339 4758,3347 4761,3348 4767,3360 4770,3366 4773,3372 4774,3378 4776,3384 4777,3390 4777,3396 L 4786,3399 4792,3393 4797,3382 4798,3374 C 4796,3373 4795,3370 4795,3367 4796,3364 4800,3365 4802,3362 4804,3357 4799,3355 4796,3352 4790,3346 4783,3344 4781,3335 4781,3333 4782,3331 4785,3329 4792,3321 4795,3320 4802,3312 4805,3314 4808,3314 4811,3313 4814,3313 4816,3315 4824,3317 4827,3318 4831,3318 4835,3317 L 4838,3316 C 4839,3318 4839,3320 4839,3322 4840,3332 4838,3349 4841,3354 4842,3356 4842,3357 4843,3359 4844,3361 4845,3363 4845,3365 4845,3371 4846,3375 4845,3382 4845,3387 4844,3392 4843,3398 4843,3401 4841,3404 4839,3407 4837,3410 4834,3411 4830,3413 L 4830,3422 4840,3427 4851,3429 4857,3427 C 4857,3425 4858,3423 4859,3421 4860,3419 4861,3417 4863,3416 4866,3415 4870,3418 4871,3416 4873,3413 4872,3413 4872,3409 4871,3403 4870,3400 4869,3394 4868,3386 4867,3377 4868,3369 4868,3364 4868,3360 4869,3355 4871,3347 4873,3343 4875,3335 4877,3328 4878,3321 4879,3313 4907,3318 4935,3316 4963,3310 4964,3310 4969,3308 4969,3308 4977,3314 4985,3319 4994,3322 4994,3323 4994,3330 4994,3331 4994,3334 4994,3335 4995,3337 4996,3339 4997,3340 4998,3340 5000,3341 5003,3340 5004,3339 5006,3337 5006,3334 5007,3332 5007,3330 5007,3328 5007,3326 5009,3326 5012,3326 5014,3326 5017,3326 5020,3326 5022,3326 5022,3327 5022,3329 5023,3330 5023,3332 5022,3334 5023,3336 5024,3338 5025,3339 5027,3340 5029,3340 5031,3340 5032,3339 5035,3337 5035,3334 5035,3331 5035,3330 5035,3325 5035,3324 5037,3324 5042,3322 5044,3321 5044,3323 5044,3326 5043,3328 5043,3331 5042,3334 5041,3337 5039,3341 5037,3345 5034,3349 5032,3354 5029,3359 5025,3363 5023,3365 5022,3366 5020,3369 5018,3372 5017,3374 5015,3377 5012,3381 5010,3384 5006,3387 5000,3392 4996,3388 4987,3394 L 4985,3403 4998,3408 5010,3411 5014,3408 C 5014,3406 5014,3403 5016,3402 5018,3399 5020,3398 5023,3398 5026,3397 5030,3398 5032,3396 5035,3393 5035,3388 5038,3383 5044,3369 5054,3357 5065,3348 5070,3342 5075,3341 5080,3335 5082,3332 5084,3330 5084,3327 5085,3324 5083,3323 5082,3321 5082,3318 5081,3315 5081,3312 5094,3318 5090,3317 5092,3324 5094,3330 5092,3334 5093,3339 5094,3346 5097,3349 5097,3356 5098,3363 5097,3370 5095,3377 5094,3383 5093,3389 5090,3395 5088,3401 5085,3405 5080,3409 5078,3411 5077,3411 5075,3413 L 5073,3422 5084,3425 5098,3429 5102,3426 C 5103,3420 5101,3412 5105,3411 5109,3411 5112,3411 5112,3408 5113,3406 5113,3405 5113,3403 5115,3386 5117,3370 5119,3362 5121,3353 5121,3352 5122,3345 5123,3340 5124,3335 5126,3330 5133,3311 5124,3308 5117,3297 5113,3293 5111,3288 5110,3283 5109,3276 5112,3270 5111,3259 5111,3250 5111,3241 5111,3233 5112,3232 5113,3232 5115,3231 5125,3227 5132,3219 5136,3209 5138,3205 5139,3200 5139,3196 5139,3193 5138,3190 5138,3186 5137,3183 5137,3181 5135,3178 5134,3175 5132,3173 5130,3170 5123,3164 5115,3159 5106,3157 5094,3154 5081,3152 5068,3152 5056,3151 5043,3151 5030,3151 5012,3153 5002,3156 4984,3158 4969,3160 4954,3162 4940,3162 4919,3162 4900,3158 4888,3159 4866,3161 4865,3166 4832,3168 4820,3169 4809,3170 4797,3170 L 4778,3164 C 4783,3163 4788,3159 4791,3155 4794,3151 4793,3148 4796,3145 4799,3142 4800,3139 4803,3136 4801,3134 4798,3133 4795,3132 4792,3132 4789,3132 4786,3132 4783,3133 4779,3134 4775,3135 4773,3137 4770,3139 4768,3141 4761,3137 4755,3133 4748,3130 4740,3126 4730,3123 4721,3122 Z M 4739,3229 H 4739 C 4739,3229 4739,3229 4739,3229 Z" />
  <path
     d="M 5118,3235 5112,3237 C 5104,3240 5096,3242 5088,3242 5064,3244 5050,3232 5025,3234 5013,3235 5007,3245 4994,3248 4989,3249 4984,3250 4979,3251 L 4983,3241 C 4977,3243 4971,3243 4964,3244 4960,3244 4955,3243 4951,3243 L 4960,3234 C 4956,3233 4952,3232 4948,3231 4945,3230 4941,3228 4939,3225 4944,3224 4949,3223 4954,3222 4968,3219 4972,3212 4989,3210 4999,3209 5016,3210 5058,3217 5085,3221 5097,3219 5107,3214 5113,3211 5117,3205 5117,3198 5118,3192 5115,3186 5109,3182 5107,3180 5103,3179 5099,3179"
     style="fill:none;stroke:#fedf00;stroke-width:9;stroke-linecap:round" />
  <path
     d="M 4723,3155 C 4718,3154 4714,3155 4711,3158 4706,3160 4706,3164 4703,3168 4707,3169 4709,3171 4713,3170 4716,3170 4718,3168 4720,3166 4722,3163 4724,3159 4724,3155 L 4723,3155 Z"
     style="fill:#fcd900;stroke:#fedf00;stroke-width:5" />
  <path
     d="M 4824,3274 C 4824,3274 4826,3278 4828,3281 4830,3285 4831,3289 4832,3294 4833,3300 4834,3307 4834,3313 4835,3314 4835,3315 4835,3316 L 4835,3326 M 4896,3264 C 4896,3264 4894,3271 4893,3276 4890,3288 4887,3295 4884,3307 4884,3309 4883,3311 4883,3313 M 4786,3277 C 4793,3279 4790,3307 4802,3314"
     style="fill:none;stroke:#fedf00;stroke-width:9;stroke-linecap:round" />
  <path
     d="M 5041,3328 5044,3325 C 5053,3322 5061,3316 5068,3309"
     style="fill:none;stroke:#fedf00;stroke-width:9" />
  <path
     d="M 4971,3312 H 4971 C 5003,3304 5024,3288 5039,3286"
     style="fill:none;stroke:#fedf00;stroke-width:9;stroke-linecap:round" />
  <path
     d="M 5003,3272 C 5006,3272 5008,3272 5011,3271 5024,3269 5026,3278 5035,3283 5052,3292 5054,3303 5074,3313 5075,3313 5076,3314 5077,3314 L 5084,3318"
     style="fill:none;stroke:#fedf00;stroke-width:9;stroke-linecap:round" />
  <path
     d="M 4659,3190 C 4661,3191 4663,3191 4665,3191 4668,3190 4670,3189 4673,3189 4675,3188 4677,3189 4679,3190 4680,3190 4681,3191 4681,3193 4682,3194 4683,3195 4682,3197 4682,3199 4679,3201 4677,3201 4675,3201 4673,3200 4672,3198 4671,3197 4671,3196 4672,3195 4667,3197 4661,3195 4659,3190 Z"
     style="fill:#fcd900;stroke:#fedf00;stroke-width:5" />
  <path
     style="fill:#005eb8;stroke-width:9"
     d="M 4726,3277 C 4720,3275 4714,3272 4708,3270 4711,3267 4713,3267 4716,3265 4719,3261 4719,3258 4721,3253 4723,3248 4723,3244 4727,3241 4730,3239 4734,3238 4737,3239 4741,3240 4744,3243 4745,3246 4746,3251 4743,3254 4743,3259 4741,3263 4741,3268 4741,3272 4742,3275 4743,3278 4744,3280 4738,3280 4732,3279 4726,3277 Z M 4717,3286 C 4717,3282 4719,3280 4722,3280 4725,3280 4728,3282 4728,3285 4728,3289 4726,3291 4722,3291 4719,3291 4717,3289 4717,3286 Z M 4701,3137 C 4701,3137 4700,3136 4700,3136 4696,3133 4696,3130 4694,3126 4693,3123 4692,3119 4691,3116 4691,3113 4691,3109 4691,3106 4692,3103 4692,3101 4691,3098 4691,3095 4691,3092 4689,3089 4689,3088 4686,3086 4687,3085 4688,3085 4689,3085 4690,3085 4694,3086 4697,3087 4699,3089 4702,3092 4704,3095 4705,3099 4706,3104 4707,3107 4709,3112 4709,3114 4710,3116 4711,3119 4713,3121 4714,3122 4716,3124 L 4716,3124 C 4714,3127 4711,3130 4709,3132 4706,3134 4704,3136 4701,3137 L 4701,3137 Z M 4733,3233 4753,3242 C 4767,3234 4778,3221 4785,3207 4791,3195 4795,3181 4797,3168 L 4781,3163 4778,3163 C 4775,3177 4770,3189 4763,3201 4757,3212 4749,3221 4739,3228 L 4733,3233 Z M 4778,3396 C 4780,3392 4783,3388 4786,3384 4790,3381 4794,3377 4798,3374 4799,3374 4801,3374 4802,3375 4802,3379 4802,3384 4801,3389 4800,3392 4799,3396 4797,3400 4797,3403 4796,3406 4794,3408 4793,3410 4791,3412 4790,3413 4785,3406 4778,3401 4778,3396 Z M 5075,3412 C 5085,3415 5094,3419 5101,3426 5102,3427 5102,3429 5102,3430 5097,3431 5093,3432 5088,3432 5084,3433 5081,3433 5077,3432 5074,3433 5070,3432 5067,3431 5065,3431 5063,3430 5062,3429 5067,3422 5070,3414 5075,3412 Z M 4987,3394 C 4997,3397 5006,3401 5013,3407 5014,3409 5014,3410 5014,3412 5010,3413 5005,3414 5000,3414 4996,3414 4993,3414 4989,3414 4986,3414 4983,3414 4979,3413 4978,3412 4976,3411 4974,3410 4979,3404 4982,3396 4987,3394 Z M 4831,3413 C 4835,3415 4840,3416 4844,3418 4849,3421 4853,3424 4857,3427 4858,3428 4858,3430 4858,3431 4853,3432 4849,3433 4844,3433 4840,3434 4837,3434 4833,3433 4830,3433 4827,3433 4823,3432 4821,3432 4820,3431 4818,3429 4823,3423 4826,3415 4831,3413 Z M 4750,3145 C 4745,3143 4741,3136 4744,3131 4746,3129 4748,3129 4749,3127 4751,3125 4751,3122 4751,3120 4750,3117 4750,3114 4749,3111 4748,3108 4747,3105 4747,3102 4747,3097 4748,3092 4751,3088 4752,3085 4755,3083 4758,3082 4759,3083 4757,3087 4758,3089 4758,3093 4759,3097 4760,3100 4762,3105 4765,3107 4767,3112 4769,3116 4770,3120 4770,3124 4771,3128 4770,3132 4768,3135 4767,3138 4765,3140 4763,3142 4761,3144 4758,3145 4756,3146 4754,3146 4752,3146 4750,3145 Z" />
  <path
     style="fill:#d52b1e;stroke-width:9"
     d="M 4721,3451 C 4721,3451 4718,3453 4716,3454 4714,3456 4711,3459 4709,3461 4705,3464 4701,3466 4697,3468 4695,3469 4694,3471 4692,3472 4690,3475 4691,3478 4690,3481 4688,3484 4686,3487 4684,3490 4681,3493 4678,3496 4674,3499 4672,3502 4668,3505 4665,3508 4664,3508 4663,3509 4661,3510 4660,3510 4658,3509 4656,3510 4653,3511 4652,3515 4649,3517 4650,3518 4650,3520 4651,3522 4653,3525 4658,3533 4659,3535 4661,3538 4661,3541 4663,3542 4667,3543 4671,3543 4675,3543 4681,3544 4688,3545 4694,3547 4699,3549 4701,3552 4707,3555 4710,3557 4714,3558 4718,3559 4721,3560 4724,3560 4727,3560 4730,3559 4731,3558 4733,3558 4733,3558 4734,3558 4734,3558 L 4734,3562 C 4734,3562 4734,3562 4734,3562 V 3562 H 4734 L 4753,3571 C 4751,3574 4750,3578 4751,3582 4756,3598 4761,3609 4764,3610 4769,3612 4771,3618 4774,3624 4773,3625 4772,3625 4771,3627 4765,3631 4760,3637 4756,3643 4750,3654 4745,3654 4753,3668 4758,3676 4761,3678 4767,3690 4770,3695 4773,3701 4774,3707 4776,3713 4777,3719 4777,3725 L 4786,3728 4792,3722 4797,3712 4798,3704 C 4796,3702 4795,3699 4795,3697 4796,3693 4800,3694 4802,3691 4804,3687 4799,3684 4796,3681 4790,3675 4783,3674 4781,3664 4781,3662 4782,3661 4785,3658 4792,3650 4795,3649 4802,3642 4805,3643 4808,3643 4811,3643 4814,3642 4816,3644 4824,3646 4827,3647 4831,3647 4835,3646 L 4838,3646 C 4839,3648 4839,3650 4839,3652 4840,3661 4838,3679 4841,3683 4842,3685 4842,3687 4843,3688 4844,3690 4845,3692 4845,3694 4845,3701 4846,3705 4845,3711 4845,3716 4844,3722 4843,3727 4843,3730 4841,3734 4839,3736 4837,3740 4834,3740 4830,3743 L 4830,3752 4840,3756 4851,3759 4857,3756 C 4857,3754 4858,3752 4859,3751 4860,3748 4861,3747 4863,3746 4866,3744 4870,3747 4871,3745 4873,3743 4872,3742 4872,3738 4871,3732 4870,3729 4869,3723 4868,3715 4867,3707 4868,3698 4868,3694 4868,3689 4869,3684 4871,3676 4873,3673 4875,3665 4877,3657 4878,3650 4879,3643 4907,3647 4935,3646 4963,3639 4964,3639 4969,3637 4969,3637 4977,3643 4985,3648 4994,3652 4994,3652 4994,3659 4994,3660 4994,3663 4994,3665 4995,3667 4996,3668 4997,3669 4998,3669 5000,3670 5003,3669 5004,3668 5006,3666 5006,3664 5007,3661 5007,3659 5007,3657 5007,3655 5009,3655 5012,3656 5014,3655 5017,3656 5020,3655 5022,3655 5022,3656 5022,3659 5023,3659 5023,3662 5022,3663 5023,3665 5024,3667 5025,3669 5027,3669 5029,3669 5031,3669 5032,3668 5035,3666 5035,3664 5035,3661 5035,3660 5035,3654 5035,3653 5037,3653 5042,3651 5044,3650 5044,3653 5044,3655 5043,3657 5043,3660 5042,3663 5041,3666 5039,3670 5037,3674 5034,3678 5032,3683 5029,3688 5025,3692 5023,3695 5022,3696 5020,3698 5018,3701 5017,3703 5015,3706 5012,3710 5010,3713 5006,3716 5000,3721 4996,3717 4987,3724 L 4985,3733 4998,3738 5010,3740 5014,3738 C 5014,3735 5014,3733 5016,3731 5018,3729 5020,3727 5023,3727 5026,3727 5030,3727 5032,3725 5035,3722 5035,3717 5038,3712 5044,3699 5054,3687 5065,3677 5070,3671 5075,3670 5080,3664 5082,3661 5084,3660 5084,3656 5085,3653 5083,3652 5082,3650 5082,3647 5081,3644 5081,3641 5094,3648 5090,3647 5092,3653 5094,3659 5092,3663 5093,3669 5094,3675 5097,3679 5097,3686 5098,3693 5097,3700 5095,3706 5094,3713 5093,3719 5090,3724 5088,3730 5085,3735 5080,3738 5078,3740 5077,3741 5075,3742 L 5073,3751 5084,3755 5098,3759 5102,3756 C 5103,3750 5101,3741 5105,3740 5109,3740 5112,3740 5112,3738 5113,3736 5113,3734 5113,3732 5115,3715 5117,3699 5119,3691 5121,3683 5121,3681 5122,3674 5123,3669 5124,3664 5126,3659 5133,3640 5124,3638 5117,3626 5113,3622 5111,3618 5110,3613 5109,3605 5112,3599 5111,3588 5111,3579 5111,3571 5111,3562 5112,3562 5113,3561 5115,3560 5125,3556 5132,3548 5136,3538 5138,3534 5139,3530 5139,3525 5139,3522 5138,3519 5138,3516 5137,3513 5137,3510 5135,3507 5134,3504 5132,3502 5130,3500 5123,3493 5115,3488 5106,3486 5094,3483 5081,3481 5068,3481 5056,3480 5043,3480 5030,3481 5012,3482 5002,3485 4984,3488 4969,3490 4954,3491 4940,3491 4919,3492 4900,3487 4888,3488 4866,3490 4865,3495 4832,3498 4820,3499 4809,3499 4797,3499 L 4778,3493 C 4783,3492 4788,3489 4791,3484 4794,3481 4793,3478 4796,3474 4799,3472 4800,3469 4803,3466 4801,3464 4798,3462 4795,3462 4792,3461 4789,3461 4786,3462 4783,3462 4779,3463 4775,3465 4773,3466 4770,3468 4768,3470 4761,3466 4755,3462 4748,3459 4740,3455 4730,3452 4721,3451 Z M 4739,3558 H 4739 C 4739,3558 4739,3558 4739,3558 Z" />
  <path
     d="M 5118,3564 5112,3567 C 5104,3570 5096,3571 5088,3571 5064,3573 5050,3562 5025,3564 5013,3565 5007,3574 4994,3577 4989,3579 4984,3580 4979,3580 L 4983,3571 C 4977,3572 4971,3573 4964,3573 4960,3573 4955,3573 4951,3572 L 4960,3563 C 4956,3563 4952,3562 4948,3560 4945,3559 4941,3557 4939,3555 4944,3554 4949,3553 4954,3551 4968,3548 4972,3541 4989,3540 4999,3539 5016,3539 5058,3546 5085,3551 5097,3548 5107,3544 5113,3541 5117,3534 5117,3528 5118,3521 5115,3515 5109,3511 5107,3509 5103,3508 5099,3508"
     style="fill:none;stroke:#fedf00;stroke-width:9;stroke-linecap:round" />
  <path
     d="M 4723,3484 C 4718,3484 4714,3485 4711,3487 4706,3490 4706,3493 4703,3497 4707,3498 4709,3500 4713,3499 4716,3499 4718,3497 4720,3495 4722,3492 4724,3488 4724,3485 L 4723,3484 Z"
     style="fill:#fcd900;stroke:#fedf00;stroke-width:5" />
  <path
     d="M 4824,3603 C 4824,3603 4826,3607 4828,3610 4830,3614 4831,3619 4832,3623 4833,3630 4834,3636 4834,3642 4835,3644 4835,3645 4835,3646 L 4835,3656 M 4896,3593 C 4896,3593 4894,3601 4893,3605 4890,3617 4887,3624 4884,3636 4884,3638 4883,3640 4883,3642 M 4786,3606 C 4793,3608 4790,3637 4802,3643"
     style="fill:none;stroke:#fedf00;stroke-width:9;stroke-linecap:round" />
  <path
     d="M 5041,3657 5044,3655 C 5053,3651 5061,3645 5068,3638"
     style="fill:none;stroke:#fedf00;stroke-width:9" />
  <path
     d="M 4971,3641 H 4971 C 5003,3633 5024,3617 5039,3615"
     style="fill:none;stroke:#fedf00;stroke-width:9;stroke-linecap:round" />
  <path
     d="M 5003,3601 C 5006,3601 5008,3601 5011,3601 5024,3599 5026,3607 5035,3612 5052,3621 5054,3633 5074,3642 5075,3643 5076,3643 5077,3644 L 5084,3647"
     style="fill:none;stroke:#fedf00;stroke-width:9;stroke-linecap:round" />
  <path
     d="M 4659,3520 C 4661,3520 4663,3520 4665,3520 4668,3520 4670,3518 4673,3518 4675,3517 4677,3518 4679,3519 4680,3520 4681,3521 4681,3522 4682,3523 4683,3525 4682,3526 4682,3529 4679,3530 4677,3530 4675,3530 4673,3529 4672,3528 4671,3527 4671,3525 4672,3524 4667,3526 4661,3524 4659,3520 Z"
     style="fill:#fcd900;stroke:#fedf00;stroke-width:5" />
  <path
     style="fill:#005eb8;stroke-width:9"
     d="M 4726,3606 C 4720,3604 4714,3602 4708,3599 4711,3597 4713,3597 4716,3594 4719,3590 4719,3587 4721,3582 4723,3577 4723,3573 4727,3570 4730,3568 4734,3567 4737,3568 4741,3569 4744,3572 4745,3575 4746,3580 4743,3583 4743,3588 4741,3593 4741,3597 4741,3602 4742,3604 4743,3607 4744,3610 4738,3609 4732,3608 4726,3606 Z M 4717,3615 C 4717,3612 4719,3609 4722,3609 4725,3609 4728,3612 4728,3615 4728,3618 4726,3620 4722,3620 4719,3621 4717,3618 4717,3615 Z M 4701,3466 C 4701,3466 4700,3466 4700,3465 4696,3463 4696,3459 4694,3455 4693,3452 4692,3449 4691,3445 4691,3442 4691,3439 4691,3436 4692,3433 4692,3430 4691,3427 4691,3424 4691,3421 4689,3419 4689,3417 4686,3416 4687,3415 4688,3414 4689,3415 4690,3415 4694,3415 4697,3416 4699,3419 4702,3421 4704,3424 4705,3428 4706,3433 4707,3436 4709,3441 4709,3444 4710,3446 4711,3448 4713,3450 4714,3452 4716,3453 L 4716,3454 C 4714,3456 4711,3459 4709,3461 4706,3463 4704,3465 4701,3466 L 4701,3466 Z M 4733,3562 4753,3571 C 4767,3563 4778,3551 4785,3536 4791,3524 4795,3511 4797,3497 L 4781,3492 4778,3493 C 4775,3506 4770,3519 4763,3530 4757,3541 4749,3550 4739,3558 L 4733,3562 Z M 4778,3725 C 4780,3721 4783,3717 4786,3714 4790,3710 4794,3707 4798,3703 4799,3703 4801,3704 4802,3704 4802,3709 4802,3713 4801,3718 4800,3722 4799,3725 4797,3729 4797,3732 4796,3735 4794,3738 4793,3739 4791,3741 4790,3742 4785,3736 4778,3731 4778,3725 Z M 5075,3742 C 5085,3744 5094,3749 5101,3755 5102,3757 5102,3758 5102,3759 5097,3761 5093,3761 5088,3762 5084,3762 5081,3762 5077,3762 5074,3762 5070,3762 5067,3761 5065,3760 5063,3759 5062,3758 5067,3752 5070,3743 5075,3742 Z M 4987,3723 C 4997,3726 5006,3730 5013,3737 5014,3738 5014,3740 5014,3741 5010,3742 5005,3743 5000,3743 4996,3744 4993,3744 4989,3743 4986,3744 4983,3743 4979,3742 4978,3742 4976,3741 4974,3740 4979,3733 4982,3725 4987,3723 Z M 4831,3743 C 4835,3744 4840,3746 4844,3747 4849,3750 4853,3753 4857,3756 4858,3757 4858,3759 4858,3760 4853,3761 4849,3762 4844,3763 4840,3763 4837,3763 4833,3763 4830,3763 4827,3762 4823,3762 4821,3761 4820,3760 4818,3759 4823,3753 4826,3744 4831,3743 Z M 4750,3474 C 4745,3472 4741,3465 4744,3460 4746,3458 4748,3458 4749,3457 4751,3454 4751,3452 4751,3449 4750,3446 4750,3443 4749,3440 4748,3437 4747,3434 4747,3431 4747,3426 4748,3421 4751,3417 4752,3414 4755,3412 4758,3411 4759,3413 4757,3416 4758,3419 4758,3422 4759,3426 4760,3429 4762,3434 4765,3436 4767,3441 4769,3445 4770,3449 4770,3454 4771,3457 4770,3461 4768,3464 4767,3467 4765,3470 4763,3472 4761,3473 4758,3475 4756,3475 4754,3476 4752,3475 4750,3474 Z" />
  <path
     d="M 3713,2243 H 4453 V 2981 H 3713 Z M 4532,2243 H 5272 V 2981 H 4532 Z M 3716,3621 C 3719,3642 3726,3662 3736,3681 3749,3702 3744,3701 3774,3735 3791,3751 3809,3765 3830,3775 3850,3785 3870,3793 3892,3798 3940,3811 3991,3815 4041,3812 4072,3810 4103,3807 4133,3802 4166,3798 4200,3795 4233,3793 4252,3793 4271,3792 4289,3793 4311,3795 4333,3798 4354,3802 4388,3810 4421,3819 4453,3831 L 4453,3060 3713,3060 V 3587 C 3713,3587 3715,3613 3716,3621 Z M 5269,3621 C 5266,3642 5259,3662 5249,3680 5236,3701 5241,3701 5211,3734 5194,3751 5176,3765 5155,3775 5135,3785 5115,3793 5093,3797 5045,3810 4994,3815 4944,3812 4913,3810 4882,3807 4852,3802 4819,3797 4785,3794 4752,3793 4733,3792 4714,3792 4697,3793 4674,3795 4652,3798 4631,3802 4597,3809 4564,3819 4531,3831 L 4532,3060 5272,3060 V 3587 C 5272,3587 5270,3612 5269,3621 Z"
     style="fill:none;stroke:#713f2a;stroke-width:7" />
</svg>
