<svg viewBox="-2100 -1470 4200 2940" xmlns="http://www.w3.org/2000/svg">
	<defs>
		<g id="bra710G">
			<clipPath id="bra710g">
				<path d="m-31.5 0v-70h63v70zm31.5-47v12h31.5v-12z"/>
			</clipPath>
			<use clip-path="url(#bra710g)" href="#bra710O"/>
			<path d="M5-35H31.5V-25H5z"/>
			<path d="m21.5-35h10v35h-10z"/>
		</g>
		<g id="bra710R">
			<use href="#bra710P"/>
			<path d="m28 0c0-10 0-32-15-32h-19c22 0 22 22 22 32"/>
		</g>
		<g id="bra710s" fill="#fff">
			<g id="bra710c">
				<path id="bra710t" transform="rotate(18,0,-1)" d="m0-1v1h0.5"/>
				<use transform="scale(-1,1)" href="#bra710t"/>
			</g>
			<use transform="rotate(72)" href="#bra710c"/>
			<use transform="rotate(-72)" href="#bra710c"/>
			<use transform="rotate(144)" href="#bra710c"/>
			<use transform="rotate(216)" href="#bra710c"/>
		</g>
		<g id="bra710a">
			<use transform="scale(31.5)" href="#bra710s"/>
		</g>
		<g id="bra710b">
			<use transform="scale(26.25)" href="#bra710s"/>
		</g>
		<g id="bra710f">
			<use transform="scale(21)" href="#bra710s"/>
		</g>
		<g id="bra710h">
			<use transform="scale(15)" href="#bra710s"/>
		</g>
		<g id="bra710i">
			<use transform="scale(10.5)" href="#bra710s"/>
		</g>
		<path id="bra710D" d="m-31.5 0h33a30 30 0 0 0 30-30v-10a30 30 0 0 0-30-30h-33zm13-13h19a19 19 0 0 0 19-19v-6a19 19 0 0 0-19-19h-19z" fill-rule="evenodd"/>
		<path id="bra710E" transform="translate(-31.5)" d="m0 0h63v-13h-51v-18h40v-12h-40v-14h48v-13h-60z"/>
		<path id="bra710e" d="m-26.25 0h52.5v-12h-40.5v-16h33v-12h-33v-11h39.25v-12h-51.25z"/>
		<path id="bra710M" d="m-31.5 0h12v-48l14 48h11l14-48v48h12v-70h-17.5l-14 48-14-48h-17.5z"/>
		<path id="bra710O" d="m0 0a31.5 35 0 0 0 0-70 31.5 35 0 0 0 0 70m0-13a18.5 22 0 0 0 0-44 18.5 22 0 0 0 0 44" fill-rule="evenodd"/>
		<path id="bra710P" d="m-31.5 0h13v-26h28a22 22 0 0 0 0-44h-40zm13-39h27a9 9 0 0 0 0-18h-27z" fill-rule="evenodd"/>
		<path id="bra710S" d="m-15.75-22c0 7 6.75 10.5 16.75 10.5s14.74-3.25 14.75-7.75c0-14.25-46.75-5.25-46.5-30.25 0.25-21.5 24.75-20.5 33.75-20.5s26 4 25.75 21.25h-15.25c0-7.5-7-10.25-15-10.25-7.75 0-13.25 1.25-13.25 8.5-0.25 11.75 46.25 4 46.25 28.75 0 18.25-18 21.75-31.5 21.75-11.5 0-31.55-4.5-31.5-22z"/>
	</defs>
	<clipPath id="bra710B">
		<circle r="735"/>
	</clipPath>
	<path d="m-2100-1470h4200v2940h-4200z" fill="#009440"/>
	<path d="M -1743,0 0,1113 1743,0 0,-1113 Z" fill="#ffcb00"/>
	<circle r="735" fill="#302681"/>
	<path d="m-2205 1470a1785 1785 0 0 1 3570 0h-105a1680 1680 0 1 0-3360 0z" clip-path="url(#bra710B)" fill="#fff"/>
	<g transform="translate(-420,1470)" fill="#009440">
		<use transform="rotate(-7)" y="-1697.5" href="#bra710O"/>
		<use transform="rotate(-4)" y="-1697.5" href="#bra710R"/>
		<use transform="rotate(-1)" y="-1697.5" href="#bra710D"/>
		<use transform="rotate(2)" y="-1697.5" href="#bra710E"/>
		<use transform="rotate(5)" y="-1697.5" href="#bra710M"/>
		<use transform="rotate(9.75)" y="-1697.5" href="#bra710e"/>
		<use transform="rotate(14.5)" y="-1697.5" href="#bra710P"/>
		<use transform="rotate(17.5)" y="-1697.5" href="#bra710R"/>
		<use transform="rotate(20.5)" y="-1697.5" href="#bra710O"/>
		<use transform="rotate(23.5)" y="-1697.5" href="#bra710G"/>
		<use transform="rotate(26.5)" y="-1697.5" href="#bra710R"/>
		<use transform="rotate(29.5)" y="-1697.5" href="#bra710E"/>
		<use transform="rotate(32.5)" y="-1697.5" href="#bra710S"/>
		<use transform="rotate(35.5)" y="-1697.5" href="#bra710S"/>
		<use transform="rotate(38.5)" y="-1697.5" href="#bra710O"/>
	</g>
	<use x="-600" y="-132" href="#bra710a"/>
	<use x="-535" y="177" href="#bra710a"/>
	<use x="-625" y="243" href="#bra710b"/>
	<use x="-463" y="132" href="#bra710h"/>
	<use x="-382" y="250" href="#bra710b"/>
	<use x="-404" y="323" href="#bra710f"/>
	<use x="228" y="-228" href="#bra710a"/>
	<use x="515" y="258" href="#bra710a"/>
	<use x="617" y="265" href="#bra710f"/>
	<use x="545" y="323" href="#bra710b"/>
	<use x="368" y="477" href="#bra710b"/>
	<use x="367" y="551" href="#bra710f"/>
	<use x="441" y="419" href="#bra710f"/>
	<use x="500" y="382" href="#bra710b"/>
	<use x="365" y="405" href="#bra710f"/>
	<use x="-280" y="30" href="#bra710b"/>
	<use x="200" y="-37" href="#bra710f"/>
	<use y="330" href="#bra710a"/>
	<use x="85" y="184" href="#bra710b"/>
	<use y="118" href="#bra710b"/>
	<use x="-74" y="184" href="#bra710f"/>
	<use x="-37" y="235" href="#bra710h"/>
	<use x="220" y="495" href="#bra710b"/>
	<use x="283" y="430" href="#bra710f"/>
	<use x="162" y="412" href="#bra710f"/>
	<use x="-295" y="390" href="#bra710a"/>
	<use y="575" href="#bra710i"/>
</svg>