<svg viewBox="0 0 9600 4800" xmlns="http://www.w3.org/2000/svg">
	<rect fill="#fff" x="0" y="0" width="9600" height="4800"/>
	<rect fill="#d52b1e" x="0" y="0" width="2400" height="4800"/>
	<rect fill="#d52b1e" x="7200" y="0" width="2400" height="4800"/>
	<path fill="#d52b1e"
		d="M 4890,4430 4845,3567 C 4842.2057,3506.378 4896.1916,3458.7148 4956,3469 L 5815,3620 5699,3300 C 5689.3504,3273.8943 5697.3921,3244.542 5719,3227 L 6660,2465 6448,2366 C 6418.3747,2352.0005 6403.8014,2318.1389 6414,2287 L 6600,1715 6058,1830 C 6027.7252,1836.3122 5997.1951,1820.4198 5985,1792 L 5880,1545 5457,1999 C 5437.1332,2019.9549 5405.8241,2025.2915 5380.1373,2012.101 5354.4506,1998.9105 5340.5451,1970.3556 5346,1942 L 5550,890 5223,1079 C 5190.5663,1098.0091 5148.8179,1085.6222 5132,1052 L 4800,400 4468,1052 C 4451.1821,1085.6222 4409.4337,1098.0091 4377,1079 L 4050,890 4254,1942 C 4259.4549,1970.3556 4245.5494,1998.9105 4219.8627,2012.101 4194.1759,2025.2915 4162.8668,2019.9549 4143,1999 L 3720,1545 3615,1792 C 3602.8049,1820.4198 3572.2748,1836.3122 3542,1830 L 3000,1715 3186,2287 C 3196.1986,2318.1389 3181.6253,2352.0005 3152,2366 L 2940,2465 3881,3227 C 3902.6079,3244.542 3910.6496,3273.8943 3901,3300 L 3785,3620 4644,3469 C 4703.8084,3458.7148 4757.7943,3506.378 4755,3567 L 4710,4430 Z"
	/>
</svg>
