<svg viewBox="0 0 9000 6000" xmlns="http://www.w3.org/2000/svg">
  <rect fill="#ee1c25" height="6000" width="9000"/>
  <rect fill="#0b4ea2" height="4000" width="9000"/>
  <rect fill="#fff" height="2000" width="9000"/>
  <path fill="#fff" d="M 3934,1410 H 3853 2699 1544 1463 L 1455,1490 C 1453,1508 1410,1930 1410,2857 1410,3293 1557,3677 1847,3999 2051,4225 2316,4415 2660,4581 L 2699,4599 2738,4581 C 3081,4415 3347,4225 3550,3999 3841,3677 3988,3293 3988,2857 3988,1930 3945,1508 3943,1490 Z"/>
  <path fill="#ee1c25" d="M 2699,4500 C 2205,4262 1500,3790 1500,2857 1500,1924 1544,1500 1544,1500 H 2699 3853 C 3853,1500 3898,1924 3898,2857 3898,3790 3192,4262 2699,4500 Z"/>
  <path fill="#fff" d="M 2804,2612 C 2938,2615 3199,2620 3431,2542 3431,2542 3425,2625 3425,2722 3425,2819 3431,2902 3431,2902 3218,2830 2955,2829 2804,2831 V 3346 H 2593 V 2831 C 2443,2829 2180,2830 1967,2902 1967,2902 1973,2819 1973,2722 1973,2625 1967,2542 1967,2542 2199,2620 2460,2615 2593,2612 V 2289 C 2472,2288 2296,2293 2098,2360 2098,2360 2104,2277 2104,2180 2104,2083 2098,2000 2098,2000 2296,2066 2471,2072 2593,2071 2587,1866 2527,1608 2527,1608 2527,1608 2650,1618 2699,1618 2748,1618 2871,1608 2871,1608 2871,1608 2811,1866 2805,2071 2927,2072 3102,2066 3300,2000 3300,2000 3294,2083 3294,2180 3294,2277 3300,2360 3300,2360 3102,2293 2926,2288 2804,2289 V 2612 Z"/>
  <path fill="#0b4ea2" d="M 2699,3290 C 2450,3290 2317,3635 2317,3635 2317,3635 2243,3472 2040,3472 1903,3472 1802,3594 1738,3707 1987,4104 2386,4349 2699,4500 3012,4349 3410,4104 3660,3707 3595,3594 3494,3472 3357,3472 3154,3472 3080,3635 3080,3635 3080,3635 2947,3290 2699,3290 Z"/>
</svg>