<svg viewBox="0 0 100 100" xmlns="http://www.w3.org/2000/svg">
	<path fill="#000" d="M93.3,49c-0.8-0.8-19.5-19.9-43-20.1h-0.1c0,0,0,0-0.1,0H50c-3.1,0-6.1,0.3-9,0.9l-9.1-17.1l-2.6,1.4L38,30.5
		C19.1,35.4,5.8,50,5.8,50s2.3,2.6,4.2,4.1c2.2,1.8,7.7,5.9,7.7,5.9l-5.8-11.8c1.5-1.3,3.4-2.8,5.7-4.5l12.2,22.9l4.3,1.7L20.1,42
		c2.3-1.5,5-3.1,7.8-4.5l17.8,33.4l3.5,0.2L44.3,62c1.8,0.9,3.8,1.4,5.9,1.4c1.7,0,3.3-0.3,4.8-0.9l13.2,24.9l2.6-1.4l-8.7-16.4
		c17.8-4.8,30.6-18,31.2-18.6l1-1L93.3,49z M68.3,50c0,6.2-3.2,12-8.4,15.3l-2.3-4.2c3.6-2.4,5.9-6.5,5.9-11.1
		c0-7.4-6-13.3-13.3-13.3c-1.8,0-3.5,0.4-5,1l-2.3-4.3c2.3-1,4.7-1.5,7.2-1.5c0.1,0,0.1,0,0.2,0C60.2,32,68.3,40,68.3,50z M37,48.2
		l-6.3-11.9c2.8-1.2,5.7-2.3,8.8-3l3.1,5.8C39.5,41.2,37.5,44.4,37,48.2z M64.2,65.7c4.4-4,7-9.6,7-15.7c0-6.2-2.7-11.8-7.1-15.7
		C77,38.5,86.9,47,90.1,50C86.9,53,77,61.5,64.2,65.7z"/>
</svg>
